<svg xmlns="http://www.w3.org/2000/svg" xmlns:xlink="http://www.w3.org/1999/xlink" width="500" zoomAndPan="magnify" viewBox="0 0 375 374.999991" height="500" preserveAspectRatio="xMidYMid meet" version="1.0"><path fill="#000000" d="M 290.339844 206.644531 C 292.972656 206.644531 295.433594 205.589844 297.191406 203.660156 C 298.945312 201.726562 300 199.269531 299.824219 196.808594 L 299.296875 174.679688 C 299.121094 169.410156 294.90625 165.191406 289.636719 165.191406 C 289.636719 165.191406 289.460938 165.191406 289.460938 165.191406 L 275.058594 165.542969 C 272.597656 156.234375 268.734375 147.453125 263.464844 139.375 L 273.476562 129.011719 C 275.234375 127.078125 276.289062 124.621094 276.113281 122.160156 C 276.113281 119.527344 275.058594 117.242188 273.125 115.308594 L 256.96875 100.027344 C 253.101562 96.339844 246.957031 96.515625 243.265625 100.378906 L 233.253906 110.742188 C 224.824219 105.824219 215.867188 102.3125 206.382812 100.378906 L 206.03125 85.976562 C 205.855469 80.707031 201.640625 75.085938 196.195312 75.261719 L 173.710938 75.085938 C 170.902344 75.085938 168.441406 76.84375 166.6875 80.003906 C 165.457031 82.289062 164.753906 84.925781 164.753906 87.207031 L 164.578125 101.082031 C 155.269531 103.542969 146.3125 107.40625 138.230469 112.675781 L 127.867188 102.664062 C 124.003906 98.976562 117.855469 99.152344 114.167969 103.015625 L 98.710938 119 C 96.957031 120.929688 95.902344 123.390625 96.078125 125.847656 C 96.078125 128.484375 97.132812 130.765625 99.0625 132.699219 L 109.425781 142.535156 C 104.507812 150.789062 100.996094 159.75 99.0625 169.058594 L 84.660156 169.410156 C 82.027344 169.410156 79.566406 170.460938 77.808594 172.394531 C 75.878906 174.503906 75 176.960938 75 179.597656 L 75.527344 201.726562 C 75.703125 206.996094 79.917969 211.210938 85.1875 211.210938 C 85.1875 211.210938 85.363281 211.210938 85.363281 211.210938 L 99.765625 210.859375 C 102.226562 220.167969 106.089844 228.953125 111.359375 237.03125 L 101.347656 247.394531 C 99.589844 249.328125 98.535156 251.785156 98.710938 254.246094 C 98.710938 256.878906 99.765625 259.164062 101.699219 261.09375 L 117.855469 276.375 C 121.722656 280.0625 127.867188 279.890625 131.558594 276.023438 L 141.570312 265.660156 C 150 270.578125 158.957031 274.09375 168.441406 276.023438 L 168.792969 290.425781 C 168.96875 295.695312 173.183594 299.914062 178.453125 299.914062 C 178.453125 299.914062 178.628906 299.914062 178.628906 299.914062 L 200.9375 299.386719 C 203.570312 299.386719 206.03125 298.332031 207.785156 296.398438 C 209.542969 294.46875 210.597656 292.007812 210.421875 289.550781 L 210.070312 275.144531 C 219.378906 272.6875 228.335938 268.824219 236.417969 263.554688 L 246.78125 273.566406 C 250.644531 277.253906 256.792969 277.078125 260.480469 273.214844 L 275.9375 257.230469 C 277.691406 255.296875 278.746094 252.839844 278.570312 250.378906 C 278.570312 247.746094 277.515625 245.460938 275.585938 243.53125 L 265.222656 233.695312 C 270.140625 225.4375 273.652344 216.480469 275.585938 207.171875 Z M 269.4375 202.957031 C 267.503906 213.496094 263.640625 223.332031 257.84375 232.289062 C 256.96875 233.695312 257.144531 235.625 258.371094 236.679688 L 270.84375 248.625 C 271.371094 249.152344 271.722656 249.855469 271.722656 250.554688 C 271.722656 251.257812 271.546875 251.960938 271.019531 252.488281 L 255.5625 268.472656 C 254.507812 269.527344 252.75 269.527344 251.699219 268.472656 L 239.226562 256.527344 C 237.996094 255.296875 236.242188 255.296875 234.835938 256.175781 C 226.054688 262.324219 216.21875 266.539062 205.855469 268.824219 C 204.273438 269.175781 203.042969 270.578125 203.042969 272.335938 L 203.394531 289.550781 C 203.394531 290.25 203.21875 290.953125 202.691406 291.480469 C 202.167969 292.007812 201.464844 292.359375 200.761719 292.359375 L 178.628906 292.886719 C 177.226562 292.886719 175.996094 291.65625 175.996094 290.25 L 175.644531 273.039062 C 175.644531 271.28125 174.414062 269.878906 172.832031 269.703125 C 162.296875 267.769531 152.285156 263.90625 143.324219 258.285156 C 142.796875 257.933594 142.097656 257.757812 141.394531 257.757812 C 140.515625 257.757812 139.460938 258.109375 138.933594 258.8125 L 126.992188 271.28125 C 125.9375 272.335938 124.179688 272.335938 123.125 271.28125 L 106.617188 256 C 106.089844 255.472656 105.738281 254.773438 105.738281 254.070312 C 105.738281 253.367188 105.914062 252.664062 106.441406 252.136719 L 118.382812 239.667969 C 119.613281 238.4375 119.613281 236.679688 118.734375 235.273438 C 112.585938 226.492188 108.371094 216.832031 105.914062 206.46875 C 105.5625 204.890625 103.980469 203.660156 102.402344 203.660156 L 85.1875 204.011719 C 83.605469 204.011719 82.378906 202.957031 82.378906 201.375 L 82.027344 179.421875 C 82.027344 178.71875 82.203125 178.015625 82.726562 177.488281 C 83.253906 176.960938 83.957031 176.609375 84.660156 176.609375 L 101.875 176.257812 C 103.453125 176.257812 105.035156 175.027344 105.210938 173.449219 C 107.144531 162.910156 111.007812 153.074219 116.804688 144.117188 C 117.679688 142.710938 117.503906 140.777344 116.277344 139.726562 L 103.804688 127.78125 C 103.277344 127.253906 102.925781 126.550781 102.925781 125.847656 C 102.925781 125.144531 103.101562 124.445312 103.628906 123.917969 L 119.085938 107.933594 C 120.140625 106.878906 121.898438 106.878906 122.949219 107.933594 L 135.421875 119.878906 C 136.652344 121.105469 138.40625 121.105469 139.8125 120.226562 C 148.59375 114.082031 158.429688 109.867188 168.792969 107.582031 C 170.375 107.230469 171.605469 105.824219 171.605469 104.246094 L 171.78125 87.558594 C 171.78125 85.273438 173.183594 82.640625 173.710938 82.464844 L 196.195312 82.113281 C 197.25 82.113281 199.003906 84.222656 199.003906 85.976562 L 199.355469 103.191406 C 199.355469 104.949219 200.585938 106.351562 202.167969 106.527344 C 212.703125 108.460938 222.714844 112.324219 231.675781 117.945312 C 233.078125 118.824219 234.835938 118.648438 236.066406 117.417969 L 248.007812 104.949219 C 249.0625 103.894531 250.820312 103.894531 251.875 104.949219 L 268.03125 120.226562 C 268.558594 120.753906 268.910156 121.457031 268.910156 122.160156 C 268.910156 122.863281 268.734375 123.566406 268.207031 124.09375 L 256.265625 136.5625 C 255.035156 137.792969 255.035156 139.550781 255.914062 140.953125 C 262.0625 149.738281 266.277344 159.398438 268.734375 169.761719 C 269.085938 171.339844 270.492188 172.570312 272.25 172.570312 L 289.460938 172.21875 C 290.867188 172.21875 292.097656 173.449219 292.097656 174.855469 L 292.621094 196.984375 C 292.621094 197.6875 292.449219 198.390625 291.921875 198.917969 C 291.394531 199.445312 290.691406 199.796875 289.988281 199.796875 L 272.773438 200.144531 C 271.195312 200.144531 269.789062 201.375 269.4375 202.957031 Z M 269.4375 202.957031 " fill-opacity="1" fill-rule="nonzero"/><path fill="#000000" d="M 187.414062 136.5625 C 159.308594 136.5625 136.476562 159.398438 136.476562 187.5 C 136.476562 215.601562 159.308594 238.4375 187.414062 238.4375 C 215.515625 238.4375 238.347656 215.601562 238.347656 187.5 C 238.347656 159.398438 215.515625 136.5625 187.414062 136.5625 Z M 187.414062 231.410156 C 163.171875 231.410156 143.5 211.738281 143.5 187.5 C 143.5 163.261719 163.171875 143.589844 187.414062 143.589844 C 211.652344 143.589844 231.324219 163.261719 231.324219 187.5 C 231.324219 211.738281 211.652344 231.410156 187.414062 231.410156 Z M 187.414062 231.410156 " fill-opacity="1" fill-rule="nonzero"/><path fill="#000000" d="M 175.117188 171.164062 C 173.886719 169.761719 171.605469 169.585938 170.199219 170.8125 L 154.390625 184.867188 C 154.390625 184.867188 154.214844 185.039062 154.214844 185.039062 C 154.214844 185.039062 154.039062 185.214844 154.039062 185.214844 C 154.039062 185.214844 154.039062 185.214844 154.039062 185.390625 C 154.039062 185.566406 153.863281 185.566406 153.863281 185.742188 C 153.863281 185.917969 153.6875 185.917969 153.6875 186.09375 C 153.6875 186.269531 153.511719 186.269531 153.511719 186.445312 C 153.511719 186.621094 153.511719 186.621094 153.335938 186.796875 C 153.335938 186.972656 153.335938 186.972656 153.335938 187.148438 C 153.335938 187.324219 153.335938 187.324219 153.335938 187.5 C 153.335938 187.675781 153.335938 187.675781 153.335938 187.851562 C 153.335938 188.027344 153.335938 188.027344 153.335938 188.203125 C 153.335938 188.378906 153.335938 188.378906 153.335938 188.554688 C 153.335938 188.730469 153.335938 188.730469 153.335938 188.90625 C 153.335938 189.082031 153.335938 189.082031 153.511719 189.257812 C 153.511719 189.433594 153.6875 189.433594 153.6875 189.609375 C 153.6875 189.785156 153.863281 189.785156 153.863281 189.957031 C 153.863281 190.132812 154.039062 190.132812 154.039062 190.308594 C 154.039062 190.308594 154.039062 190.308594 154.039062 190.484375 C 154.039062 190.484375 154.214844 190.484375 154.214844 190.660156 C 154.214844 190.660156 154.390625 190.835938 154.390625 190.835938 L 170.199219 204.890625 C 170.902344 205.414062 171.78125 205.765625 172.484375 205.765625 C 173.535156 205.765625 174.414062 205.414062 175.117188 204.539062 C 176.347656 203.132812 176.347656 200.847656 174.765625 199.621094 L 161.945312 187.5 L 174.765625 176.082031 C 176.347656 174.855469 176.347656 172.570312 175.117188 171.164062 Z M 175.117188 171.164062 " fill-opacity="1" fill-rule="nonzero"/><path fill="#000000" d="M 204.625 170.8125 C 203.21875 169.585938 200.9375 169.585938 199.707031 171.164062 C 198.476562 172.570312 198.476562 174.855469 200.058594 176.082031 L 212.878906 187.5 L 200.058594 198.917969 C 198.652344 200.144531 198.476562 202.429688 199.707031 203.835938 C 200.410156 204.539062 201.289062 205.0625 202.34375 205.0625 C 203.21875 205.0625 203.921875 204.714844 204.625 204.1875 L 220.433594 190.132812 C 220.433594 190.132812 220.609375 189.960938 220.609375 189.960938 C 220.609375 189.960938 220.785156 189.960938 220.785156 189.785156 C 220.785156 189.785156 220.785156 189.785156 220.785156 189.609375 C 220.785156 189.433594 220.960938 189.433594 220.960938 189.257812 C 220.960938 189.082031 221.136719 189.082031 221.136719 188.90625 C 221.136719 188.730469 221.3125 188.730469 221.3125 188.554688 C 221.3125 188.378906 221.3125 188.378906 221.488281 188.203125 C 221.488281 188.027344 221.488281 188.027344 221.488281 187.851562 C 221.488281 187.675781 221.488281 187.675781 221.488281 187.5 C 221.488281 187.324219 221.488281 187.324219 221.488281 187.148438 C 221.488281 186.972656 221.488281 186.972656 221.488281 186.796875 C 221.488281 186.621094 221.488281 186.621094 221.488281 186.445312 C 221.488281 186.269531 221.488281 186.269531 221.488281 186.09375 C 221.488281 185.917969 221.488281 185.917969 221.3125 185.742188 C 221.3125 185.566406 221.136719 185.566406 221.136719 185.390625 C 221.136719 185.214844 220.960938 185.214844 220.960938 185.039062 C 220.960938 184.867188 220.785156 184.867188 220.785156 184.691406 C 220.785156 184.691406 220.785156 184.691406 220.785156 184.515625 C 220.785156 184.515625 220.609375 184.339844 220.609375 184.339844 C 220.609375 184.339844 220.609375 184.164062 220.433594 184.164062 Z M 204.625 170.8125 " fill-opacity="1" fill-rule="nonzero"/><path fill="#000000" d="M 191.628906 167.300781 C 189.695312 166.949219 187.9375 168.179688 187.414062 169.9375 L 180.386719 203.308594 C 180.035156 205.238281 181.265625 206.996094 183.019531 207.523438 C 183.195312 207.523438 183.546875 207.523438 183.722656 207.523438 C 185.304688 207.523438 186.886719 206.46875 187.238281 204.714844 L 194.261719 171.339844 C 194.789062 169.585938 193.558594 167.828125 191.628906 167.300781 Z M 191.628906 167.300781 " fill-opacity="1" fill-rule="nonzero"/></svg>