<svg xmlns="http://www.w3.org/2000/svg" xmlns:xlink="http://www.w3.org/1999/xlink" width="100" zoomAndPan="magnify" viewBox="0 0 75 74.999997" height="100" preserveAspectRatio="xMidYMid meet" version="1.0"><defs><clipPath id="13b84e4c9c"><path d="M 22.5 22.5 L 52.5 22.5 L 52.5 52.5 L 22.5 52.5 Z M 22.5 22.5 " clip-rule="nonzero"/></clipPath></defs><rect x="-7.5" width="90" fill="#ffffff" y="-7.5" height="89.999996" fill-opacity="1"/><rect x="-7.5" width="90" fill="#ffffff" y="-7.5" height="89.999996" fill-opacity="1"/><g clip-path="url(#13b84e4c9c)"><path fill="#010101" d="M 37.5 22.5 C 29.230469 22.5 22.5 29.230469 22.5 37.5 C 22.5 45.769531 29.230469 52.5 37.5 52.5 C 45.769531 52.5 52.5 45.769531 52.5 37.5 C 52.5 29.230469 45.769531 22.5 37.5 22.5 Z M 37.5 50.5 C 30.332031 50.5 24.5 44.667969 24.5 37.5 C 24.5 30.332031 30.332031 24.5 37.5 24.5 C 44.667969 24.5 50.5 30.332031 50.5 37.5 C 50.5 44.667969 44.667969 50.5 37.5 50.5 Z M 37.5 50.5 " fill-opacity="1" fill-rule="nonzero"/></g><path fill="#010101" d="M 43.015625 30.703125 L 32.085938 30.703125 C 31.53125 30.703125 31.085938 31.148438 31.085938 31.703125 C 31.085938 32.253906 31.53125 32.703125 32.085938 32.703125 L 43.015625 32.703125 C 43.566406 32.703125 44.015625 32.253906 44.015625 31.703125 C 44.015625 31.148438 43.566406 30.703125 43.015625 30.703125 Z M 43.015625 30.703125 " fill-opacity="1" fill-rule="nonzero"/><path fill="#010101" d="M 43.015625 36.5 L 32.085938 36.5 C 31.53125 36.5 31.085938 36.949219 31.085938 37.5 C 31.085938 38.050781 31.53125 38.5 32.085938 38.5 L 43.015625 38.5 C 43.566406 38.5 44.015625 38.050781 44.015625 37.5 C 44.015625 36.949219 43.566406 36.5 43.015625 36.5 Z M 43.015625 36.5 " fill-opacity="1" fill-rule="nonzero"/><path fill="#010101" d="M 43.015625 42.296875 L 32.085938 42.296875 C 31.53125 42.296875 31.085938 42.746094 31.085938 43.296875 C 31.085938 43.851562 31.53125 44.296875 32.085938 44.296875 L 43.015625 44.296875 C 43.566406 44.296875 44.015625 43.851562 44.015625 43.296875 C 44.015625 42.746094 43.566406 42.296875 43.015625 42.296875 Z M 43.015625 42.296875 " fill-opacity="1" fill-rule="nonzero"/></svg>