<svg xmlns="http://www.w3.org/2000/svg" xmlns:xlink="http://www.w3.org/1999/xlink" width="940" zoomAndPan="magnify" viewBox="0 0 705 591.000005" height="788" preserveAspectRatio="xMidYMid meet" version="1.0"><defs><clipPath id="57b085d29a"><path d="M 329.730469 439.476562 L 379.789062 439.476562 L 379.789062 489.476562 L 329.730469 489.476562 Z M 329.730469 439.476562 " clip-rule="nonzero"/></clipPath><clipPath id="967c06a445"><path d="M 166.664062 278 L 221 278 L 221 297 L 166.664062 297 Z M 166.664062 278 " clip-rule="nonzero"/></clipPath><clipPath id="f0e330e087"><path d="M 345 100.152344 L 364 100.152344 L 364 154 L 345 154 Z M 345 100.152344 " clip-rule="nonzero"/></clipPath></defs><path fill="#ecc10c" d="M 448.722656 285.832031 C 448.722656 232.859375 406.605469 189.914062 354.652344 189.914062 C 302.699219 189.914062 260.582031 232.859375 260.582031 285.832031 C 260.582031 315.40625 273.707031 341.847656 294.335938 359.441406 C 299.382812 369.613281 304.425781 381.953125 305.894531 392.957031 C 309.109375 417.066406 354.652344 414.386719 354.652344 414.386719 C 354.652344 414.386719 400.191406 417.066406 403.402344 392.957031 C 404.875 381.953125 409.917969 369.613281 414.964844 359.441406 C 435.597656 341.847656 448.722656 315.402344 448.722656 285.832031 " fill-opacity="1" fill-rule="nonzero"/><path fill="#f29211" d="M 388.671875 341.863281 C 381.5 341.863281 375.695312 336.058594 375.695312 328.890625 C 375.695312 321.722656 381.5 315.914062 388.671875 315.914062 C 395.835938 315.914062 401.644531 321.722656 401.644531 328.890625 C 401.644531 336.058594 395.835938 341.863281 388.671875 341.863281 Z M 374.292969 342.015625 L 374.707031 337.863281 C 375.734375 339.457031 377.027344 340.859375 378.523438 342.015625 Z M 330.78125 342.015625 C 332.21875 340.898438 333.476562 339.566406 334.484375 338.042969 L 334.878906 342.015625 Z M 307.65625 328.890625 C 307.65625 321.722656 313.464844 315.914062 320.632812 315.914062 C 327.800781 315.914062 333.605469 321.722656 333.605469 328.890625 C 333.605469 336.058594 327.800781 341.863281 320.632812 341.863281 C 313.464844 341.863281 307.65625 336.058594 307.65625 328.890625 Z M 388.671875 312.285156 C 379.5 312.285156 372.0625 319.71875 372.0625 328.890625 C 372.0625 328.984375 372.074219 329.078125 372.074219 329.167969 L 370.792969 342.015625 L 338.378906 342.015625 L 337.183594 330.023438 C 337.207031 329.648438 337.238281 329.269531 337.238281 328.890625 C 337.238281 319.71875 329.804688 312.285156 320.632812 312.285156 C 311.460938 312.285156 304.023438 319.71875 304.023438 328.890625 C 304.023438 338.0625 311.460938 345.496094 320.632812 345.496094 L 335.226562 345.496094 L 342.101562 414.472656 L 345.566406 414.128906 L 338.726562 345.496094 L 370.445312 345.496094 L 363.605469 414.128906 L 367.070312 414.472656 L 373.949219 345.496094 L 385.992188 345.496094 L 385.992188 345.261719 C 386.867188 345.40625 387.757812 345.496094 388.671875 345.496094 C 397.84375 345.496094 405.277344 338.0625 405.277344 328.890625 C 405.277344 319.71875 397.84375 312.285156 388.671875 312.285156 " fill-opacity="1" fill-rule="nonzero"/><g clip-path="url(#57b085d29a)"><path fill="#32435b" d="M 379.570312 464.34375 C 379.691406 478.101562 368.628906 489.359375 354.867188 489.476562 C 341.109375 489.597656 329.855469 478.539062 329.734375 464.78125 C 329.613281 451.023438 340.671875 439.769531 354.433594 439.648438 C 368.191406 439.527344 379.449219 450.585938 379.570312 464.34375 " fill-opacity="1" fill-rule="nonzero"/></g><path fill="#bdc2c5" d="M 393.757812 408.046875 L 393.757812 462.953125 C 393.757812 469.757812 388.242188 475.273438 381.4375 475.273438 L 327.863281 475.273438 C 321.0625 475.273438 315.542969 469.757812 315.542969 462.953125 L 315.542969 408.046875 L 393.757812 408.046875 " fill-opacity="1" fill-rule="nonzero"/><path fill="#eff4f4" d="M 384.015625 451.964844 L 325.285156 451.964844 C 317.824219 451.964844 311.777344 454.722656 311.777344 458.125 C 311.777344 461.421875 317.453125 464.113281 324.59375 464.28125 C 324.8125 464.28125 325.050781 464.289062 325.285156 464.289062 L 384.015625 464.289062 C 384.25 464.289062 384.484375 464.28125 384.710938 464.28125 C 391.847656 464.113281 397.523438 461.421875 397.523438 458.125 C 397.523438 454.722656 391.472656 451.964844 384.015625 451.964844 " fill-opacity="1" fill-rule="nonzero"/><path fill="#eff4f4" d="M 384.015625 435.160156 L 325.285156 435.160156 C 317.824219 435.160156 311.777344 437.921875 311.777344 441.324219 C 311.777344 444.617188 317.453125 447.3125 324.59375 447.476562 C 324.8125 447.476562 325.050781 447.484375 325.285156 447.484375 L 384.015625 447.484375 C 384.25 447.484375 384.484375 447.476562 384.710938 447.476562 C 391.847656 447.3125 397.523438 444.617188 397.523438 441.324219 C 397.523438 437.921875 391.472656 435.160156 384.015625 435.160156 " fill-opacity="1" fill-rule="nonzero"/><path fill="#eff4f4" d="M 384.015625 418.359375 L 325.285156 418.359375 C 317.824219 418.359375 311.777344 421.121094 311.777344 424.519531 C 311.777344 427.816406 317.453125 430.511719 324.59375 430.671875 C 324.8125 430.671875 325.050781 430.679688 325.285156 430.679688 L 384.015625 430.679688 C 384.25 430.679688 384.484375 430.671875 384.710938 430.671875 C 391.847656 430.511719 397.523438 427.816406 397.523438 424.519531 C 397.523438 421.121094 391.472656 418.359375 384.015625 418.359375 " fill-opacity="1" fill-rule="nonzero"/><path fill="#ecc10c" d="M 485.703125 404.957031 L 462.699219 380.941406 C 459.777344 377.890625 454.636719 378.070312 451.214844 381.34375 C 447.90625 384.515625 447.421875 389.425781 450.050781 392.507812 C 450.140625 392.597656 450.226562 392.699219 450.316406 392.792969 L 473.324219 416.8125 C 473.414062 416.910156 473.511719 417 473.601562 417.089844 C 476.5625 419.851562 481.492188 419.578125 484.804688 416.410156 C 488.222656 413.132812 488.628906 408.007812 485.703125 404.957031 " fill-opacity="1" fill-rule="nonzero"/><path fill="#ecc10c" d="M 529.046875 277.628906 L 492.554688 278.917969 C 487.917969 279.082031 484.292969 283.050781 484.460938 287.777344 C 484.625 292.359375 488.28125 295.984375 492.726562 296.058594 C 492.863281 296.050781 493.011719 296.054688 493.160156 296.046875 L 529.65625 294.757812 C 529.804688 294.753906 529.949219 294.742188 530.085938 294.734375 C 534.519531 294.347656 537.910156 290.476562 537.746094 285.898438 C 537.578125 281.167969 533.683594 277.464844 529.046875 277.628906 " fill-opacity="1" fill-rule="nonzero"/><path fill="#ecc10c" d="M 472.492188 155.703125 L 445.539062 180.34375 C 442.117188 183.472656 441.929688 188.839844 445.125 192.332031 C 448.214844 195.714844 453.351562 196.105469 456.78125 193.277344 C 456.886719 193.183594 457 193.09375 457.109375 192.992188 L 484.058594 168.351562 C 484.167969 168.253906 484.269531 168.148438 484.371094 168.058594 C 487.496094 164.886719 487.570312 159.742188 484.476562 156.359375 C 481.28125 152.867188 475.914062 152.570312 472.492188 155.703125 " fill-opacity="1" fill-rule="nonzero"/><path fill="#ecc10c" d="M 218.992188 405.535156 L 242 381.515625 C 244.921875 378.464844 250.0625 378.644531 253.480469 381.921875 C 256.789062 385.09375 257.277344 390.003906 254.648438 393.085938 C 254.554688 393.175781 254.472656 393.277344 254.378906 393.375 L 231.375 417.390625 C 231.285156 417.488281 231.1875 417.578125 231.097656 417.667969 C 228.136719 420.429688 223.203125 420.160156 219.894531 416.988281 C 216.476562 413.710938 216.074219 408.582031 218.992188 405.535156 " fill-opacity="1" fill-rule="nonzero"/><g clip-path="url(#967c06a445)"><path fill="#ecc10c" d="M 175.648438 278.203125 L 212.144531 279.492188 C 216.777344 279.65625 220.402344 283.628906 220.234375 288.355469 C 220.074219 292.9375 216.417969 296.558594 211.96875 296.632812 C 211.832031 296.628906 211.6875 296.628906 211.539062 296.625 L 175.042969 295.335938 C 174.894531 295.328125 174.75 295.316406 174.613281 295.3125 C 170.179688 294.925781 166.789062 291.054688 166.949219 286.476562 C 167.117188 281.746094 171.011719 278.042969 175.648438 278.203125 " fill-opacity="1" fill-rule="nonzero"/></g><path fill="#ecc10c" d="M 232.207031 156.28125 L 259.160156 180.917969 C 262.582031 184.046875 262.769531 189.417969 259.574219 192.910156 C 256.480469 196.292969 251.347656 196.679688 247.914062 193.855469 C 247.8125 193.761719 247.699219 193.667969 247.589844 193.570312 L 220.636719 168.929688 C 220.53125 168.832031 220.425781 168.726562 220.328125 168.632812 C 217.203125 165.46875 217.128906 160.320312 220.222656 156.9375 C 223.417969 153.445312 228.785156 153.148438 232.207031 156.28125 " fill-opacity="1" fill-rule="nonzero"/><g clip-path="url(#f0e330e087)"><path fill="#ecc10c" d="M 345.792969 108.761719 L 346.367188 145.273438 C 346.445312 149.910156 350.339844 153.605469 355.074219 153.53125 C 359.65625 153.460938 363.351562 149.875 363.511719 145.433594 C 363.507812 145.292969 363.511719 145.144531 363.511719 145 L 362.933594 108.488281 C 362.929688 108.34375 362.921875 108.195312 362.917969 108.058594 C 362.613281 103.621094 358.8125 100.15625 354.226562 100.226562 C 349.496094 100.304688 345.71875 104.125 345.792969 108.761719 " fill-opacity="1" fill-rule="nonzero"/></g></svg>