<svg xmlns="http://www.w3.org/2000/svg" xmlns:xlink="http://www.w3.org/1999/xlink" width="940" zoomAndPan="magnify" viewBox="0 0 705 591.000005" height="788" preserveAspectRatio="xMidYMid meet" version="1.0"><path fill="#545454" d="M 332.816406 154.105469 C 265.363281 161.582031 210.394531 216.011719 202.257812 283.359375 C 201.992188 285.472656 201.773438 287.59375 201.601562 289.71875 C 201.429688 291.839844 201.304688 293.96875 201.222656 296.097656 C 201.140625 298.226562 201.105469 300.355469 201.117188 302.484375 C 201.125 304.617188 201.183594 306.746094 201.28125 308.875 C 201.382812 311 201.53125 313.125 201.722656 315.25 C 201.917969 317.371094 202.152344 319.488281 202.4375 321.597656 C 202.71875 323.710938 203.046875 325.816406 203.421875 327.914062 C 203.792969 330.011719 204.214844 332.101562 204.675781 334.179688 C 205.136719 336.257812 205.644531 338.328125 206.199219 340.386719 C 206.75 342.445312 207.34375 344.488281 207.984375 346.523438 C 208.621094 348.554688 209.304688 350.570312 210.03125 352.574219 C 210.757812 354.578125 211.523438 356.566406 212.335938 358.535156 C 213.144531 360.507812 214 362.457031 214.894531 364.390625 C 215.789062 366.324219 216.722656 368.238281 217.699219 370.132812 C 218.675781 372.027344 219.691406 373.898438 220.75 375.75 C 221.804688 377.597656 222.902344 379.425781 224.035156 381.230469 C 225.171875 383.03125 226.34375 384.808594 227.554688 386.5625 C 228.765625 388.316406 230.015625 390.042969 231.300781 391.742188 C 232.585938 393.441406 233.90625 395.113281 235.261719 396.753906 C 236.621094 398.398438 238.011719 400.011719 239.4375 401.59375 C 240.863281 403.175781 242.320312 404.726562 243.8125 406.25 C 245.304688 407.769531 246.832031 409.257812 248.386719 410.714844 C 249.941406 412.167969 251.53125 413.589844 253.144531 414.976562 C 254.761719 416.363281 256.410156 417.714844 258.085938 419.03125 C 259.757812 420.351562 261.460938 421.628906 263.191406 422.875 C 264.921875 424.117188 266.675781 425.324219 268.457031 426.492188 C 270.242188 427.660156 272.046875 428.789062 273.875 429.882812 C 275.707031 430.972656 277.558594 432.023438 279.433594 433.035156 C 281.308594 434.046875 283.203125 435.019531 285.121094 435.949219 C 287.039062 436.878906 288.972656 437.769531 290.929688 438.617188 C 292.882812 439.464844 294.855469 440.269531 296.84375 441.03125 C 298.832031 441.796875 300.839844 442.515625 302.859375 443.191406 C 310.304688 444.382812 312.683594 439.769531 312.683594 435.757812 L 312.683594 410.613281 C 271.480469 419.5625 262.707031 390.691406 262.707031 390.691406 C 255.886719 373.433594 246.199219 368.820312 246.199219 368.820312 C 232.65625 359.597656 247.25 359.902344 247.25 359.902344 C 262.117188 360.953125 270.003906 375.222656 270.003906 375.222656 C 282.945312 397.832031 304.808594 391.132812 313.285156 387.5625 C 314.621094 377.898438 318.546875 371.347656 322.65625 367.628906 C 289.582031 363.914062 254.96875 351.121094 254.96875 294.457031 C 254.96875 277.949219 260.625 264.710938 270.289062 254.148438 C 268.804688 250.433594 263.59375 234.964844 271.773438 214.882812 C 271.773438 214.882812 284.273438 210.863281 312.683594 230.058594 C 318.746094 228.425781 324.886719 227.199219 331.113281 226.375 C 337.335938 225.550781 343.585938 225.140625 349.863281 225.140625 C 356.140625 225.140625 362.394531 225.550781 368.617188 226.375 C 374.839844 227.199219 380.984375 228.425781 387.046875 230.058594 C 415.476562 210.863281 427.953125 214.882812 427.953125 214.882812 C 436.125 234.964844 430.921875 250.433594 429.4375 254.148438 C 439.105469 264.679688 444.757812 277.949219 444.757812 294.457031 C 444.757812 351.265625 409.949219 363.765625 376.789062 367.484375 C 382.136719 372.09375 387.046875 381.171875 387.046875 394.996094 L 387.046875 435.757812 C 387.046875 439.769531 389.425781 444.53125 397.015625 443.191406 C 399.171875 442.46875 401.3125 441.699219 403.433594 440.878906 C 405.554688 440.058594 407.652344 439.191406 409.734375 438.273438 C 411.816406 437.355469 413.875 436.390625 415.910156 435.382812 C 417.949219 434.371094 419.960938 433.3125 421.949219 432.210938 C 423.9375 431.105469 425.898438 429.957031 427.835938 428.765625 C 429.769531 427.570312 431.679688 426.335938 433.558594 425.054688 C 435.4375 423.773438 437.285156 422.449219 439.105469 421.085938 C 440.921875 419.71875 442.707031 418.3125 444.460938 416.867188 C 446.214844 415.417969 447.9375 413.933594 449.621094 412.40625 C 451.308594 410.882812 452.957031 409.316406 454.574219 407.714844 C 456.1875 406.113281 457.765625 404.476562 459.304688 402.800781 C 460.84375 401.128906 462.34375 399.421875 463.804688 397.679688 C 465.265625 395.933594 466.683594 394.160156 468.0625 392.351562 C 469.445312 390.546875 470.78125 388.707031 472.078125 386.835938 C 473.371094 384.96875 474.625 383.070312 475.832031 381.144531 C 477.039062 379.21875 478.203125 377.265625 479.324219 375.285156 C 480.441406 373.304688 481.515625 371.300781 482.542969 369.273438 C 483.570312 367.246094 484.550781 365.195312 485.484375 363.121094 C 486.414062 361.046875 487.300781 358.953125 488.136719 356.839844 C 488.976562 354.722656 489.765625 352.589844 490.503906 350.441406 C 491.242188 348.289062 491.933594 346.125 492.574219 343.941406 C 493.214844 341.761719 493.804688 339.566406 494.34375 337.355469 C 494.882812 335.148438 495.371094 332.925781 495.808594 330.695312 C 496.246094 328.464844 496.632812 326.222656 496.96875 323.976562 C 497.304688 321.726562 497.585938 319.46875 497.820312 317.207031 C 498.050781 314.945312 498.230469 312.679688 498.359375 310.410156 C 498.488281 308.140625 498.5625 305.867188 498.585938 303.59375 C 498.609375 301.320312 498.582031 299.046875 498.503906 296.773438 C 498.421875 294.5 498.289062 292.230469 498.105469 289.964844 C 497.921875 287.699219 497.6875 285.4375 497.398438 283.183594 C 497.109375 280.925781 496.769531 278.679688 496.378906 276.4375 C 495.988281 274.199219 495.546875 271.96875 495.054688 269.75 C 494.5625 267.527344 494.019531 265.320312 493.421875 263.125 C 492.828125 260.929688 492.183594 258.75 491.492188 256.585938 C 490.796875 254.421875 490.054688 252.273438 489.261719 250.140625 C 488.46875 248.007812 487.628906 245.898438 486.738281 243.804688 C 485.851562 241.710938 484.914062 239.640625 483.929688 237.589844 C 482.945312 235.539062 481.914062 233.511719 480.835938 231.511719 C 479.761719 229.507812 478.636719 227.53125 477.46875 225.578125 C 476.300781 223.628906 475.089844 221.703125 473.835938 219.808594 C 472.578125 217.914062 471.28125 216.046875 469.941406 214.210938 C 468.597656 212.375 467.214844 210.570312 465.792969 208.796875 C 464.367188 207.023438 462.90625 205.285156 461.402344 203.578125 C 459.898438 201.875 458.355469 200.203125 456.773438 198.566406 C 455.195312 196.933594 453.578125 195.332031 451.925781 193.773438 C 450.269531 192.210938 448.582031 190.6875 446.859375 189.207031 C 445.136719 187.722656 443.378906 186.277344 441.589844 184.875 C 439.800781 183.472656 437.980469 182.109375 436.128906 180.789062 C 434.277344 179.46875 432.398438 178.195312 430.488281 176.960938 C 428.578125 175.726562 426.640625 174.535156 424.675781 173.390625 C 422.710938 172.246094 420.71875 171.148438 418.703125 170.09375 C 416.691406 169.039062 414.652344 168.03125 412.589844 167.074219 C 410.527344 166.113281 408.445312 165.199219 406.34375 164.335938 C 404.242188 163.46875 402.121094 162.652344 399.980469 161.886719 C 397.839844 161.117188 395.679688 160.398438 393.507812 159.730469 C 391.335938 159.0625 389.148438 158.441406 386.945312 157.875 C 384.742188 157.304688 382.53125 156.789062 380.304688 156.320312 C 378.078125 155.851562 375.84375 155.4375 373.601562 155.074219 C 371.355469 154.707031 369.105469 154.394531 366.84375 154.132812 C 364.585938 153.871094 362.324219 153.660156 360.054688 153.503906 C 357.785156 153.34375 355.515625 153.238281 353.242188 153.1875 C 350.96875 153.132812 348.695312 153.128906 346.421875 153.179688 C 344.148438 153.230469 341.875 153.332031 339.609375 153.488281 C 337.339844 153.640625 335.074219 153.847656 332.816406 154.105469 Z M 332.816406 154.105469 " fill-opacity="1" fill-rule="nonzero"/></svg>