<svg xmlns="http://www.w3.org/2000/svg" xmlns:xlink="http://www.w3.org/1999/xlink" width="500" zoomAndPan="magnify" viewBox="0 0 375 374.999991" height="500" preserveAspectRatio="xMidYMid meet" version="1.0"><defs><clipPath id="02bec3a1c9"><path d="M 121.875 113 L 253.125 113 L 253.125 262 L 121.875 262 Z M 121.875 113 " clip-rule="nonzero"/></clipPath></defs><g clip-path="url(#02bec3a1c9)"><path fill="#e44d26" d="M 133.917969 246.941406 L 121.992188 113.207031 L 253.007812 113.207031 L 241.070312 246.914062 L 187.417969 261.792969 Z M 133.917969 246.941406 " fill-opacity="1" fill-rule="nonzero"/></g><path fill="#f16529" d="M 187.5 250.425781 L 230.855469 238.410156 L 241.050781 124.140625 L 187.5 124.140625 Z M 187.5 250.425781 " fill-opacity="1" fill-rule="nonzero"/><path fill="#ebebeb" d="M 187.5 173.742188 L 165.792969 173.742188 L 164.296875 156.945312 L 187.5 156.945312 L 187.5 140.546875 L 146.371094 140.546875 L 146.761719 144.941406 L 150.792969 190.144531 L 187.5 190.144531 Z M 187.5 216.335938 L 187.425781 216.355469 L 169.164062 211.421875 L 167.992188 198.339844 L 151.53125 198.339844 L 153.828125 224.09375 L 187.425781 233.417969 L 187.5 233.398438 Z M 187.5 216.335938 " fill-opacity="1" fill-rule="nonzero"/><path fill="#ffffff" d="M 187.445312 173.742188 L 187.445312 190.144531 L 207.640625 190.144531 L 205.734375 211.414062 L 187.4375 216.351562 L 187.4375 233.414062 L 221.0625 224.09375 L 221.308594 221.320312 L 225.167969 178.140625 L 225.570312 173.738281 L 221.148438 173.738281 Z M 187.445312 140.546875 L 187.445312 156.945312 L 227.0625 156.945312 L 227.390625 153.257812 L 228.136719 144.941406 L 228.527344 140.539062 Z M 187.445312 140.546875 " fill-opacity="1" fill-rule="nonzero"/></svg>