<svg xmlns="http://www.w3.org/2000/svg" xmlns:xlink="http://www.w3.org/1999/xlink" width="940" zoomAndPan="magnify" viewBox="0 0 705 591.000005" height="788" preserveAspectRatio="xMidYMid meet" version="1.0"><defs><clipPath id="731d36dace"><path d="M 234.5 177 L 470.351562 177 L 470.351562 412.851562 L 234.5 412.851562 Z M 234.5 177 " clip-rule="nonzero"/></clipPath></defs><path fill="#545454" d="M 352.492188 338.902344 C 328.285156 338.902344 308.589844 319.207031 308.589844 294.996094 C 308.589844 270.78125 328.285156 251.085938 352.492188 251.085938 C 376.703125 251.085938 396.402344 270.78125 396.402344 294.996094 C 396.402344 319.207031 376.703125 338.902344 352.492188 338.902344 Z M 352.496094 235.570312 C 319.726562 235.570312 293.066406 262.226562 293.066406 294.996094 C 293.066406 327.765625 319.726562 354.421875 352.496094 354.421875 C 385.265625 354.421875 411.921875 327.765625 411.921875 294.996094 C 411.921875 262.226562 385.265625 235.570312 352.496094 235.570312 " fill-opacity="1" fill-rule="nonzero"/><g clip-path="url(#731d36dace)"><path fill="#545454" d="M 443.113281 225.777344 C 443.113281 228.933594 440.53125 231.511719 437.378906 231.511719 L 420.886719 231.511719 C 417.734375 231.511719 415.15625 228.933594 415.15625 225.777344 L 415.15625 209.289062 C 415.15625 206.136719 417.734375 203.554688 420.886719 203.554688 L 437.378906 203.554688 C 440.53125 203.554688 443.113281 206.136719 443.113281 209.289062 Z M 352.496094 371.230469 C 310.460938 371.230469 276.261719 337.035156 276.261719 294.996094 C 276.261719 252.957031 310.460938 218.761719 352.496094 218.761719 C 394.53125 218.761719 428.730469 252.957031 428.730469 294.996094 C 428.730469 337.035156 394.53125 371.230469 352.496094 371.230469 Z M 430.753906 177 L 274.238281 177 C 252.328125 177 234.5 194.828125 234.5 216.734375 L 234.5 373.253906 C 234.5 395.164062 252.328125 412.992188 274.238281 412.992188 L 430.753906 412.992188 C 452.664062 412.992188 470.492188 395.164062 470.492188 373.253906 L 470.492188 216.734375 C 470.492188 194.828125 452.664062 177 430.753906 177 " fill-opacity="1" fill-rule="nonzero"/></g></svg>