<svg xmlns="http://www.w3.org/2000/svg" xmlns:xlink="http://www.w3.org/1999/xlink" width="500" zoomAndPan="magnify" viewBox="0 0 375 374.999991" height="500" preserveAspectRatio="xMidYMid meet" version="1.0"><path fill="#251014" d="M 287.886719 175.039062 C 287.640625 175.839844 287.277344 176.550781 286.253906 177.175781 C 285.941406 171.378906 283.414062 167.078125 277.5625 164.035156 C 280.128906 168.132812 281.5625 171.773438 281.320312 175.976562 C 281.007812 181.425781 277.332031 186.492188 272.160156 188.3125 C 270.703125 188.824219 270.175781 188.859375 270.527344 186.976562 C 271.199219 183.414062 271.082031 179.832031 269.769531 176.191406 C 269.160156 177.371094 269.183594 178.535156 269.046875 179.675781 C 267.722656 190.667969 259.414062 196.234375 249.296875 196.960938 C 248.824219 196.992188 248.347656 197.085938 248.097656 196.578125 C 247.789062 195.9375 248.273438 195.613281 248.660156 195.203125 C 249.832031 193.957031 251.164062 192.789062 251.359375 190.726562 C 250.007812 190.9375 249.433594 191.933594 248.65625 192.609375 C 243.355469 197.183594 237.292969 198.019531 230.828125 195.921875 C 226.6875 194.578125 226.75 194.382812 223.53125 197.402344 C 231.109375 201.265625 238.980469 204.554688 246.957031 207.5625 C 248.855469 208.277344 251.152344 207.863281 253.242188 208.148438 C 263.550781 209.558594 272.699219 213.199219 278.933594 222.078125 C 283.160156 228.097656 284.390625 235.089844 284.925781 242.210938 C 285.21875 246.160156 285.101562 250.132812 285.171875 254.097656 C 285.21875 256.570312 285.207031 259 285.980469 261.453125 C 287.21875 265.359375 287.5625 269.382812 285.734375 273.5625 C 290.714844 273.5625 295.480469 273.554688 300.242188 273.570312 C 301.8125 273.574219 303.390625 273.558594 304.945312 273.699219 C 307.855469 273.960938 309.59375 275.53125 309.90625 278.007812 C 310.238281 280.671875 308.945312 282.683594 306.191406 283.742188 C 305.679688 283.9375 305.125 284.019531 304.589844 284.15625 C 303.753906 284.488281 303.015625 284.949219 302.003906 284.910156 C 294.777344 284.609375 287.546875 284.890625 280.320312 285.144531 C 279.515625 284.753906 278.214844 284.867188 278.484375 283.367188 C 279.714844 282.386719 281.207031 282.167969 282.671875 282.21875 C 288.675781 282.4375 294.636719 281.429688 300.636719 281.59375 C 302.113281 281.632812 303.59375 281.5625 305.007812 281.0625 C 306.117188 280.671875 307.078125 280.0625 306.996094 278.742188 C 306.921875 277.523438 305.890625 277.136719 304.882812 276.863281 C 303.988281 276.617188 303.058594 276.605469 302.136719 276.601562 C 287.1875 276.589844 272.242188 276.601562 257.292969 276.59375 C 254.289062 276.589844 251.527344 277.785156 248.597656 278.164062 C 239.203125 279.375 229.8125 278.949219 220.441406 277.996094 C 217.210938 277.667969 213.996094 277.757812 210.769531 277.730469 C 208.074219 277.707031 206.707031 280.074219 204.691406 281.253906 C 203.707031 281.832031 205.613281 285.285156 207.210938 285.816406 C 208.011719 286.082031 208.859375 285.976562 209.683594 286.035156 C 211.335938 286.136719 212.984375 286.042969 214.632812 286.113281 C 215.457031 286.152344 216.589844 286.128906 216.765625 286.988281 C 216.972656 288.015625 215.71875 288.007812 215.046875 288.386719 C 213.472656 288.855469 211.835938 288.582031 210.238281 288.757812 C 209.339844 288.859375 208.269531 288.578125 207.664062 289.59375 C 209.1875 292.414062 209.714844 295.507812 210.25 298.589844 C 210.410156 299.507812 210.417969 300.429688 209.765625 301.214844 C 209.128906 301.945312 208.496094 301.96875 207.855469 301.21875 C 206.339844 299.460938 206.519531 297.117188 205.75 295.09375 C 205.074219 293.316406 204.789062 291.390625 203.769531 289.734375 C 203.445312 289.3125 203.050781 288.941406 202.769531 288.484375 C 202.488281 287.472656 202.886719 286.277344 201.9375 285.441406 C 200.554688 282.328125 198.199219 281.292969 194.828125 281.550781 C 185.917969 282.242188 176.984375 282.6875 168.054688 283.027344 C 158.011719 283.410156 147.960938 283.597656 137.917969 282.875 C 137.183594 282.820312 136.449219 282.71875 135.710938 282.714844 C 123.078125 282.675781 110.464844 282.117188 97.84375 281.617188 C 95.730469 281.535156 93.808594 281.253906 92.378906 279.511719 C 91.449219 278.378906 90.167969 278.238281 88.847656 278.40625 C 83.699219 279.066406 78.527344 278.746094 73.367188 278.828125 C 72.8125 278.835938 72.257812 278.824219 71.707031 278.875 C 69.921875 279.039062 68.277344 279.539062 68.332031 281.710938 C 68.382812 283.726562 69.976562 284.203125 71.644531 284.308594 C 76.148438 284.589844 80.640625 285.101562 85.175781 284.960938 C 86.894531 284.90625 88.726562 284.828125 90.027344 286.386719 C 89.476562 287.914062 88.121094 287.527344 87 287.613281 C 85.90625 287.695312 84.800781 287.632812 83.699219 287.664062 C 78.867188 287.757812 74.039062 287.789062 69.257812 286.925781 C 66.296875 285.703125 64.992188 283.457031 65.511719 280.472656 C 65.984375 277.738281 67.757812 276.144531 70.972656 276.019531 C 77.148438 275.777344 83.328125 275.617188 89.507812 275.605469 C 91.945312 275.601562 92.535156 275.175781 91.847656 272.535156 C 87.585938 256.148438 83.546875 239.703125 79.445312 223.273438 C 78.929688 221.214844 78.5625 219.136719 78.664062 216.992188 C 78.851562 212.972656 80.308594 211.449219 84.28125 211.519531 C 98.65625 211.773438 113.035156 212.101562 127.410156 212.371094 C 132.945312 212.476562 138.480469 212.492188 144.011719 212.582031 C 149 212.667969 150.273438 213.644531 151.507812 218.519531 C 152.164062 221.105469 152.613281 223.738281 153.15625 226.347656 C 154.433594 226.804688 154.546875 227.890625 154.59375 229.007812 C 155.917969 235.464844 157.480469 241.863281 158.820312 248.3125 C 159.273438 250.390625 159.816406 252.453125 160.21875 254.546875 C 160.421875 255.351562 160.558594 256.175781 160.808594 256.972656 C 161.042969 257.917969 161.265625 258.871094 161.503906 259.816406 C 162.03125 262.734375 163.089844 265.515625 163.6875 268.417969 C 163.90625 269.691406 164.417969 270.871094 165.941406 270.457031 C 167.476562 270.039062 166.765625 268.644531 166.613281 267.6875 C 166.296875 265.703125 166.160156 263.730469 166.355469 261.730469 C 166.464844 261.019531 166.605469 260.277344 166.996094 259.695312 C 168.90625 256.851562 167.980469 256.191406 165.402344 254.71875 C 164.582031 254.214844 163.660156 253.824219 163.28125 252.824219 C 163.074219 251.550781 163.667969 250.941406 164.90625 250.878906 C 167.039062 251.304688 168.507812 252.875 170.246094 253.976562 C 171.1875 254.523438 171.707031 253.726562 172.34375 253.300781 C 177.40625 249.511719 183.148438 250.171875 188.847656 250.878906 C 192.289062 251.300781 195.660156 252.488281 199.039062 250.390625 C 200.167969 249.6875 201.777344 249.96875 203.136719 250.132812 C 206.917969 250.59375 210.472656 249.957031 213.917969 248.386719 C 215.003906 247.890625 216.167969 247.542969 217.375 247.414062 C 218.390625 247.632812 220.121094 247.042969 219.4375 249.207031 C 213.785156 252.542969 207.847656 254.734375 201.011719 253.59375 C 201.179688 254.300781 201.820312 254.363281 202.074219 254.769531 C 202.84375 255.527344 203.464844 256.382812 203.914062 257.367188 C 204.210938 258.09375 204.421875 258.855469 204.683594 259.601562 C 204.890625 260.230469 205.105469 260.855469 205.25 261.503906 C 205.410156 262.566406 205.75 263.605469 205.726562 264.695312 C 205.503906 265.882812 205.324219 267.070312 205.371094 268.28125 C 205.375 268.546875 205.351562 268.808594 205.320312 269.070312 C 205.257812 269.707031 204.976562 270.316406 205.105469 270.972656 C 207.628906 273.226562 210.519531 273.835938 213.917969 274.039062 C 223.769531 274.628906 233.605469 275.265625 243.484375 275.054688 C 246.085938 275 248.628906 274.65625 251.167969 274.15625 C 255.046875 273.398438 257.445312 271.019531 258.894531 267.382812 C 261.109375 261.816406 260.632812 256.152344 259.800781 250.46875 C 257.960938 237.929688 253.777344 226.335938 245.644531 216.40625 C 239.847656 209.332031 232.628906 204.183594 224.070312 200.96875 C 220.757812 199.726562 220.476562 199.964844 219.207031 203.164062 C 216.511719 209.953125 211.753906 214.492188 204.554688 216.21875 C 200.367188 217.222656 196.601562 216.117188 193.5625 213.207031 C 191.820312 211.542969 190.171875 211.117188 187.851562 211.507812 C 185.136719 211.964844 182.335938 211.839844 179.578125 211.515625 C 175.402344 209.917969 172.09375 211.351562 169.234375 214.441406 C 167.21875 216.613281 164.929688 218.46875 162.445312 220.082031 C 160.457031 221.589844 159.226562 223.980469 156.78125 224.960938 C 156.144531 224.671875 155.992188 224.253906 156.433594 223.675781 C 160.722656 218.480469 165.839844 214.132812 171.015625 209.523438 C 168.480469 208.445312 166.050781 207.523438 163.722656 206.390625 C 160.445312 204.800781 157.703125 202.503906 155.433594 199.640625 C 154.898438 198.960938 154.523438 198.269531 153.25 198.441406 C 145.023438 199.542969 142.320312 197.957031 139.097656 190.457031 C 138.996094 190.230469 138.765625 190.058594 138.550781 189.816406 C 138.292969 192.410156 138.726562 193.964844 140.621094 197.445312 C 134.082031 198.710938 127.363281 192.949219 127.316406 185.867188 C 127.285156 180.992188 128.675781 176.585938 132.503906 173.25 C 133.300781 172.558594 133.859375 171.757812 134.066406 170.71875 C 134.777344 167.160156 136.554688 164.21875 139.472656 161.699219 C 130.171875 158.417969 126.367188 151.734375 127.0625 142.253906 C 128.660156 141.679688 128.710938 142.945312 128.808594 143.863281 C 128.992188 145.613281 129.3125 147.332031 129.808594 149.015625 C 130.988281 153.039062 133.628906 155.84375 137.570312 158.203125 C 137.140625 156.738281 136.425781 155.902344 136.019531 154.9375 C 133.382812 148.699219 134.085938 142.507812 136.21875 136.324219 C 136.335938 135.980469 136.503906 135.636719 136.714844 135.339844 C 137.183594 134.679688 137.621094 133.648438 138.570312 134.078125 C 139.476562 134.492188 139.113281 135.53125 138.910156 136.316406 C 137.835938 140.519531 136.882812 144.6875 137.695312 149.125 C 139.011719 156.277344 143.671875 160.761719 150.917969 161.457031 C 151.65625 161.527344 152.386719 161.601562 153.160156 161.734375 C 145.878906 151.902344 147.179688 141.515625 150.980469 130.902344 C 153.339844 124.308594 157.011719 118.472656 161.035156 112.828125 C 161.90625 111.609375 163.277344 109.4375 164.476562 110.335938 C 166.027344 111.496094 163.691406 112.875 163.101562 114.160156 C 162.570312 115.3125 161.683594 116.308594 161.074219 117.453125 C 160.238281 119.050781 159.320312 120.597656 158.398438 122.144531 C 154.742188 129.125 151.855469 136.347656 151.214844 144.308594 C 151.011719 146.828125 151.597656 149.25 151.992188 151.691406 C 152.210938 153.042969 153.136719 153.445312 154.4375 153.269531 C 156.242188 153.027344 157.925781 153.355469 159.398438 154.492188 C 160.0625 155.003906 160.75 155.539062 160.632812 156.5 C 160.496094 157.625 159.539062 157.863281 158.667969 158.171875 C 157.6875 158.523438 156.65625 158.09375 155.460938 158.410156 C 156.042969 159.675781 157.152344 160.359375 158.035156 161.226562 C 159.835938 163.015625 159.605469 163.746094 157.128906 164.53125 C 154.464844 165.375 151.839844 164.863281 149.199219 164.5 C 146.445312 164.121094 146.449219 164.117188 147.238281 166.894531 C 149.277344 174.070312 151.40625 181.21875 153.109375 188.480469 C 153.96875 192.847656 155.730469 196.722656 159.222656 199.652344 C 162.996094 203.65625 167.878906 205.59375 173.070312 206.75 C 185.921875 209.609375 198.210938 207.429688 210.058594 202.144531 C 214.359375 200.222656 218.476562 197.941406 222.410156 195.320312 C 224.230469 194.105469 224.625 193 223.285156 191.054688 C 219.058594 184.910156 216.519531 178.15625 216.703125 170.585938 C 216.75 168.679688 215.9375 168.378906 214.191406 168.375 C 204.917969 168.335938 196.585938 165.5625 189.480469 159.449219 C 182.285156 153.417969 178.34375 145.4375 175.851562 136.605469 C 175.65625 135.910156 175.210938 135.269531 175.300781 134.496094 C 175.269531 133.367188 174.695312 132.246094 174.984375 131.601562 C 174.988281 132.835938 175.128906 134.53125 175.71875 136.1875 C 176.929688 144.152344 178.464844 151.980469 183.765625 158.5 C 184.855469 159.839844 186.632812 160.585938 187.117188 162.425781 C 186.800781 163.679688 185.785156 163.738281 184.757812 163.863281 C 180.664062 164.351562 176.71875 163.859375 172.941406 162.167969 C 163.320312 157.246094 159.9375 148.589844 159.078125 138.578125 C 158.664062 133.714844 159.042969 128.835938 160.285156 124.070312 C 161.269531 120.621094 161.765625 117.003906 163.511719 113.808594 C 164.042969 112.835938 164.605469 110.992188 165.714844 111.457031 C 167.015625 111.996094 165.972656 113.589844 165.640625 114.664062 C 163.472656 121.667969 161.867188 128.753906 162.171875 136.148438 C 162.378906 141.175781 163.195312 146.066406 165.601562 150.5625 C 168.90625 156.738281 174.292969 159.859375 181.554688 161.175781 C 175.792969 154.546875 173.585938 146.921875 172.644531 138.921875 C 171.800781 131.730469 172.113281 124.542969 174.214844 117.53125 C 174.375 117 174.539062 116.464844 174.851562 116 C 175.15625 115.539062 175.511719 115.035156 176.144531 115.15625 C 176.804688 115.28125 176.867188 115.910156 176.976562 116.445312 C 177.070312 116.902344 177.011719 117.363281 176.972656 117.828125 C 175.878906 129.957031 179.59375 140.726562 186.214844 150.703125 C 187.355469 152.417969 188.539062 152.953125 190.601562 152.351562 C 192.824219 151.703125 195.191406 151.804688 197.40625 152.710938 C 198.457031 153.140625 199.5 153.789062 199.351562 155.101562 C 199.191406 156.488281 197.96875 156.625 196.839844 156.792969 C 195.691406 156.964844 194.449219 156.523438 192.984375 157.546875 C 199.496094 162.40625 206.476562 164.804688 215.035156 164.121094 C 208.496094 159.203125 205.53125 152.496094 203.179688 145.390625 C 200.863281 138.402344 200.222656 126.273438 202.175781 123.960938 C 203.425781 124.757812 203.097656 126.054688 203.183594 127.195312 C 203.734375 134.613281 205.125 141.835938 208.367188 148.589844 C 210.105469 152.207031 212.617188 155.289062 215.703125 157.859375 C 217.714844 159.535156 218.003906 159.191406 219.417969 157.078125 C 221.546875 153.886719 221.324219 151.402344 218.953125 148.289062 C 214.230469 142.085938 212.160156 134.621094 210.339844 127.15625 C 209.996094 125.742188 209.160156 123.28125 210.65625 122.9375 C 212.5625 122.507812 212.398438 125.066406 212.722656 126.460938 C 214.3125 133.355469 216.914062 139.832031 220.457031 145.945312 C 220.734375 146.425781 220.976562 146.960938 221.375 147.324219 C 222.363281 148.21875 222.722656 150.476562 224.636719 149.496094 C 226.441406 148.574219 225.78125 146.859375 225.199219 145.328125 C 222.609375 138.515625 219.964844 131.714844 217.589844 124.820312 C 217.070312 123.320312 216.578125 121.832031 217.652344 120.332031 C 218.335938 119.378906 217.777344 118.574219 217.175781 117.835938 C 202.808594 100.191406 183.410156 91.222656 160.289062 99.289062 C 157.570312 100.234375 154.992188 101.425781 152.507812 102.878906 C 151.910156 103.226562 150.898438 104.570312 150.257812 102.769531 C 154.6875 96.53125 160.605469 92.300781 167.898438 89.957031 C 165.191406 85.34375 160.824219 83.609375 155.210938 84.824219 C 154.132812 85.058594 153.089844 85.4375 152.03125 85.746094 C 151.523438 86.078125 150.90625 86.1875 150.507812 85.769531 C 150.011719 85.253906 150.570312 84.757812 150.863281 84.332031 C 151.460938 83.445312 152.417969 83.054688 153.355469 82.671875 C 158.542969 80.582031 164.527344 81.894531 168.328125 85.996094 C 169.46875 87.226562 170.488281 88.753906 172.46875 87.757812 C 174.296875 86.839844 174.597656 85.039062 174.488281 83.238281 C 174.308594 80.40625 172.835938 78.390625 170.167969 77.367188 C 167.042969 76.167969 163.863281 76.265625 160.648438 77.054688 C 159.375 77.367188 157.832031 77.964844 157.550781 75.753906 C 161.359375 73.507812 165.398438 72.835938 169.695312 74.027344 C 175.386719 75.605469 177.984375 79.863281 176.867188 85.738281 C 176.34375 87.730469 177.722656 87.304688 178.792969 87.238281 C 186.589844 86.761719 194.035156 88.132812 201.210938 91.230469 C 212.554688 96.125 221.511719 103.847656 228.5 113.933594 C 229.546875 115.445312 230.609375 116.554688 232.605469 116.792969 C 234.601562 117.03125 235.71875 118.667969 236.589844 120.335938 C 237.621094 122.300781 238.410156 124.378906 239.0625 126.496094 C 241.289062 133.722656 244.289062 140.703125 245.988281 148.097656 C 246.351562 149.671875 247.558594 150.539062 248.851562 151.3125 C 256.5 155.890625 259.871094 162.84375 260.3125 171.546875 C 260.609375 177.46875 259.632812 182.902344 255.777344 187.65625 C 254.449219 189.292969 253.914062 191.421875 253.355469 193.457031 C 254.363281 194.015625 255.097656 193.464844 255.796875 193.136719 C 262.679688 189.921875 266.679688 184.765625 266.601562 176.917969 C 266.578125 174.703125 266.722656 172.488281 266.410156 170.28125 C 266.308594 169.574219 266.101562 168.664062 266.980469 168.355469 C 267.78125 168.070312 268.316406 168.792969 268.816406 169.332031 C 272.207031 173.011719 273.089844 177.609375 273.558594 182.351562 C 273.617188 182.96875 273.324219 183.625 273.742188 184.207031 C 277.777344 182.382812 280.40625 174.988281 277.371094 169.097656 C 275.402344 165.273438 272.359375 162.546875 269.082031 159.960938 C 267.5625 158.761719 265.949219 157.664062 264.621094 156.242188 C 264.0625 155.644531 263.328125 154.816406 264.035156 154.078125 C 264.710938 153.371094 265.640625 153.976562 266.257812 154.5 C 268.027344 155.996094 269.9375 157.273438 271.863281 158.550781 C 273.421875 159.582031 275.039062 160.386719 276.785156 161.027344 C 281.164062 162.640625 284.804688 165.207031 286.980469 169.484375 C 287.867188 171.234375 288.617188 173.023438 287.886719 175.039062 Z M 287.886719 175.039062 " fill-opacity="1" fill-rule="nonzero"/><path fill="#5c3935" d="M 160.335938 117.335938 C 161.179688 114.75 163.644531 113.199219 164.296875 110.335938 C 163.464844 111.183594 162.5 111.9375 161.816406 112.894531 C 155.445312 121.8125 150.195312 131.257812 148.824219 142.359375 C 148.371094 146.023438 148.855469 149.648438 149.609375 153.304688 C 150.375 157.03125 152.632812 159.632812 155.070312 162.335938 C 146.171875 163.085938 138.015625 158.304688 136.898438 148.867188 C 136.40625 144.695312 137.089844 140.859375 137.988281 136.921875 C 138.183594 136.078125 138.980469 135.304688 138.164062 133.75 C 134.203125 142.664062 133.398438 150.917969 139.277344 159.035156 C 135.203125 158.703125 130.480469 154.285156 129.257812 149.792969 C 128.730469 147.851562 128.015625 145.933594 128.140625 143.859375 C 128.1875 143.082031 128.082031 142.351562 127.070312 142.253906 C 126.867188 137.183594 128.824219 132.636719 130.519531 128.023438 C 130.539062 125.960938 131.707031 124.359375 132.675781 122.675781 C 133.453125 121.511719 134.0625 120.238281 134.972656 119.160156 C 136.1875 117.058594 137.542969 115.054688 139.167969 113.242188 C 141.871094 110.132812 144.789062 107.253906 148.128906 104.816406 C 148.917969 104.242188 149.554688 103.457031 150.261719 102.769531 C 151.558594 103.484375 152.230469 102.203125 153.066406 101.757812 C 166.027344 94.871094 179.453125 93.402344 193.265625 98.625 C 203.511719 102.5 211.519531 109.492188 218.269531 117.992188 C 218.976562 118.882812 219.851562 119.804688 218.183594 120.816406 C 216.90625 121.59375 217.671875 122.835938 218.035156 123.820312 C 220.761719 131.25 223.527344 138.667969 226.300781 146.082031 C 226.691406 147.125 227.191406 148.054688 226.339844 149.171875 C 224.628906 151.421875 223.796875 151.5625 222.066406 149.347656 C 216.6875 142.464844 213.890625 134.429688 211.878906 126.066406 C 211.75 125.53125 211.675781 124.988281 211.535156 124.460938 C 211.417969 124.03125 211.230469 123.621094 210.910156 123.242188 C 210.546875 127.164062 212.019531 130.769531 213.089844 134.398438 C 214.925781 140.613281 217.90625 146.304688 221.941406 151.402344 C 222.414062 152 223.070312 152.542969 222.394531 153.289062 C 220.804688 155.042969 220.121094 157.261719 219.140625 159.328125 C 218.632812 160.402344 218.09375 160.640625 217.023438 159.867188 C 211.125 155.59375 207.328125 149.839844 205.296875 142.953125 C 203.527344 136.964844 202.292969 130.847656 202.078125 124.566406 C 201.207031 131.953125 202.109375 139.203125 204.28125 146.277344 C 206.507812 153.519531 209.980469 160.03125 216.71875 164.398438 C 209.863281 166.730469 196.636719 162.78125 191.632812 156.976562 C 193.109375 155.605469 194.925781 156.285156 196.558594 156.109375 C 197.4375 156.015625 198.675781 156.367188 198.855469 155.160156 C 199.039062 153.933594 197.902344 153.542969 196.894531 153.246094 C 194.445312 152.527344 191.96875 152.363281 189.609375 153.417969 C 188.347656 153.984375 187.496094 153.804688 186.742188 152.757812 C 181.910156 146.03125 178.410156 138.738281 176.902344 130.515625 C 175.996094 125.554688 175.367188 120.621094 176.128906 115.5625 C 172.847656 123.375 172.507812 131.453125 173.550781 139.703125 C 174.589844 147.945312 177.195312 155.519531 183.246094 162.054688 C 170.351562 160.84375 163.46875 152.679688 161.90625 140.964844 C 160.578125 131 162.429688 121.601562 165.761719 112.332031 C 165.8125 112.183594 165.71875 111.984375 165.65625 111.535156 C 162.648438 115.304688 162.554688 119.945312 160.949219 123.996094 C 160.859375 123.972656 160.691406 123.925781 160.691406 123.929688 C 157.730469 133.726562 156.820312 143.410156 162.320312 152.730469 C 163.078125 154.007812 164.03125 155.128906 165.054688 156.203125 C 165.804688 156.996094 166.722656 157.710938 166.683594 158.976562 C 166.457031 159.671875 165.925781 159.851562 165.273438 159.832031 C 160.414062 157.054688 157.953125 152.480469 156.445312 147.40625 C 153.945312 138.992188 154.902344 130.6875 157.949219 122.5625 C 158.964844 120.917969 160.160156 119.363281 160.335938 117.335938 Z M 160.335938 117.335938 " fill-opacity="1" fill-rule="nonzero"/><path fill="#5c3935" d="M 287.886719 175.039062 C 287.109375 168.625 283.410156 164.414062 277.585938 162.15625 C 273.222656 160.464844 269.359375 158.136719 265.910156 155.03125 C 265.457031 154.625 264.976562 154.148438 263.921875 154.480469 C 266.734375 157.613281 270.207031 159.707031 273.152344 162.390625 C 279.234375 167.933594 282.015625 175.84375 276.59375 182.957031 C 275.574219 184.292969 274.304688 185.261719 272.640625 185.941406 C 273.109375 179.347656 272.011719 173.429688 266.949219 168.3125 C 267.359375 173.140625 267.941406 177.589844 266.765625 181.929688 C 264.941406 188.675781 260.195312 192.574219 253.78125 194.71875 C 253.25 194.894531 252.636719 195.066406 252.210938 194.632812 C 251.671875 194.074219 252.4375 193.683594 252.542969 193.203125 C 253.488281 189.0625 256.667969 186.039062 258.125 182.207031 C 261.722656 172.738281 259.464844 160.304688 251.117188 153.515625 C 250.480469 153 249.730469 152.605469 248.992188 152.238281 C 246.742188 151.121094 245.683594 149.539062 244.929688 146.902344 C 242.386719 137.980469 239.539062 129.125 235.933594 120.550781 C 235.078125 118.523438 233.59375 116.988281 231.027344 117.285156 C 229.945312 117.414062 229.445312 116.726562 228.894531 115.886719 C 219.839844 102.113281 207.617188 92.703125 191.414062 88.792969 C 187.054688 87.742188 182.636719 87.871094 178.21875 87.96875 C 176.292969 88.011719 175.515625 87.578125 176.867188 85.738281 C 177.011719 87.730469 178.160156 86.4375 178.734375 86.203125 C 184.050781 84.023438 189.636719 82.902344 195.246094 81.855469 C 198.179688 80.832031 201.152344 81.667969 204.101562 81.652344 C 223.789062 82.859375 238.632812 92.125 249.058594 108.699219 C 253.269531 115.398438 255.597656 122.894531 257.980469 130.351562 C 258.710938 132.632812 259.601562 134.839844 260.527344 137.132812 C 260.34375 135.292969 259.304688 133.660156 259.808594 131.8125 C 260.144531 131.28125 260.550781 130.917969 261.238281 131.167969 C 262.3125 134.648438 263.015625 138.308594 264.554688 141.570312 C 266.515625 145.734375 270.640625 146.875 274.90625 147.277344 C 276.402344 147.417969 277.921875 147.300781 279.445312 147.628906 C 276.40625 149.742188 273.117188 148.9375 269.390625 148.261719 C 272.722656 150.644531 276.246094 151.535156 279.40625 153.164062 C 285.875 156.5 290.097656 161.273438 290.007812 168.949219 C 289.980469 171.1875 289.421875 173.296875 287.886719 175.039062 Z M 287.886719 175.039062 " fill-opacity="1" fill-rule="nonzero"/><path fill="#f3967b" d="M 209.769531 301.214844 C 209.660156 296.980469 208.207031 293.0625 206.945312 289.101562 C 210.492188 288.011719 214.238281 288.195312 217.839844 287.945312 C 223.417969 287.5625 229.046875 287.304688 234.652344 287.089844 C 244.382812 286.71875 254.117188 286.207031 263.84375 285.667969 C 270.90625 285.273438 277.980469 284.824219 285.0625 284.945312 C 287.921875 284.996094 288.546875 285.671875 288.644531 288.640625 C 288.738281 291.402344 288.6875 294.167969 288.679688 296.929688 C 288.679688 298.039062 288.5625 299.15625 289.273438 300.125 C 289.460938 300.433594 289.511719 300.761719 289.433594 301.117188 C 283.851562 300.378906 278.277344 301.058594 272.710938 301.046875 C 267.417969 301.039062 262.125 301.351562 256.847656 301.21875 C 249.082031 301.027344 241.324219 301.285156 233.5625 301.238281 C 225.628906 301.191406 217.699219 301.21875 209.769531 301.214844 Z M 209.769531 301.214844 " fill-opacity="1" fill-rule="nonzero"/><path fill="#fdcfa2" d="M 195.867188 301.347656 C 194.507812 302.234375 192.984375 301.765625 191.5625 301.738281 C 184.664062 301.605469 177.769531 301.960938 170.855469 301.539062 C 167.617188 301.339844 164.253906 301.777344 160.945312 301.742188 C 156.101562 301.691406 151.253906 301.351562 146.410156 301.355469 C 141.535156 301.359375 136.652344 301.902344 131.789062 301.742188 C 118.273438 301.292969 104.757812 301.144531 91.238281 301.296875 C 91.132812 301.167969 91.023438 301.03125 90.914062 300.902344 C 90.472656 297.59375 90.890625 294.273438 90.871094 290.960938 C 90.859375 288.914062 92.203125 288.273438 94.019531 288.375 C 107.277344 289.113281 120.566406 289.011719 133.820312 289.566406 C 144.902344 290.03125 155.960938 289.722656 167.027344 289.945312 C 172.6875 290.058594 172.804688 290.082031 172.789062 295.648438 C 172.789062 296.199219 172.847656 296.75 172.734375 297.296875 C 172.757812 297.398438 172.800781 297.316406 172.804688 297.050781 C 172.882812 290.253906 172.878906 290.214844 179.601562 289.503906 C 182.082031 289.242188 184.585938 289.40625 187.078125 289.441406 C 189.246094 289.46875 190.242188 290.707031 190.390625 292.742188 C 190.515625 294.398438 190.417969 296.058594 190.320312 297.71875 C 190.253906 298.785156 189.996094 300.027344 191.550781 300.378906 C 193.027344 300.542969 194.644531 300.078125 195.867188 301.347656 Z M 195.867188 301.347656 " fill-opacity="1" fill-rule="nonzero"/><path fill="#fccea2" d="M 289.429688 301.113281 C 289.429688 300.929688 289.402344 300.753906 289.347656 300.578125 C 288.53125 296.121094 289.027344 291.636719 289.089844 287.164062 C 289.109375 285.765625 290.230469 285.023438 291.480469 284.875 C 294.667969 284.5 297.882812 284.511719 301.089844 284.671875 C 302.058594 284.722656 302.875 285.28125 302.746094 286.164062 C 302.035156 290.972656 303.566406 295.832031 302.351562 300.617188 C 298.082031 301.78125 293.78125 302.046875 289.429688 301.113281 Z M 289.429688 301.113281 " fill-opacity="1" fill-rule="nonzero"/><path fill="#f3977b" d="M 91.238281 301.296875 C 88.515625 301.980469 85.722656 301.78125 82.972656 301.785156 C 79.945312 301.785156 76.917969 301.386719 73.890625 301.160156 C 74.027344 297.453125 74.070312 293.738281 74.261719 290.03125 C 74.351562 288.304688 75.613281 287.765625 77.132812 287.726562 C 80.789062 287.632812 84.445312 287.566406 88.089844 288.003906 C 89.878906 288.652344 90.078125 290.132812 90.132812 291.757812 C 90.242188 294.914062 89.742188 298.117188 90.859375 301.199219 C 90.988281 301.214844 91.117188 301.25 91.238281 301.296875 Z M 91.238281 301.296875 " fill-opacity="1" fill-rule="nonzero"/><path fill="#5c3835" d="M 157.546875 75.753906 C 158.195312 77.222656 159.210938 76.714844 160.328125 76.382812 C 163.675781 75.375 167.03125 75.363281 170.355469 76.59375 C 174.238281 78.035156 176.132812 81.996094 174.957031 85.96875 C 174.445312 87.703125 173.375 88.601562 171.738281 89 C 170.082031 89.40625 169.160156 88.355469 168.324219 87.203125 C 164.371094 81.753906 156.9375 81.304688 151.96875 84.082031 C 151.414062 84.390625 150.769531 84.695312 150.789062 85.433594 C 150.792969 85.546875 151.59375 85.644531 152.027344 85.746094 C 151.519531 86.367188 150.628906 86.71875 150.113281 86.410156 C 149.375 85.976562 149.921875 85.066406 150.179688 84.453125 C 151.707031 80.78125 153.832031 77.589844 157.546875 75.753906 Z M 157.546875 75.753906 " fill-opacity="1" fill-rule="nonzero"/><path fill="#f2957b" d="M 195.867188 301.347656 C 194.328125 301.273438 192.785156 301.203125 191.242188 301.128906 C 190.597656 297.886719 190.675781 294.621094 191.046875 291.367188 C 191.179688 290.222656 191.722656 289.054688 193.003906 289.046875 C 196.710938 289.023438 200.425781 288.226562 204.128906 289.046875 C 206.460938 292.769531 207.042969 297.03125 207.859375 301.21875 C 203.863281 301.261719 199.867188 301.300781 195.867188 301.347656 Z M 195.867188 301.347656 " fill-opacity="1" fill-rule="nonzero"/><path fill="#561e1e" d="M 302.351562 300.613281 C 301.65625 296.324219 301.808594 291.996094 302.046875 287.699219 C 302.175781 285.375 301.386719 284.84375 299.261719 285.078125 C 296.882812 285.332031 294.476562 285.351562 292.082031 285.402344 C 290.289062 285.441406 289.59375 286.039062 289.644531 288.054688 C 289.746094 292.21875 290.175781 296.421875 289.347656 300.578125 C 287.597656 300.667969 287.769531 299.355469 287.753906 298.289062 C 287.710938 295.246094 287.730469 292.203125 287.738281 289.160156 C 287.746094 285.613281 287.753906 285.574219 284.054688 285.734375 C 266.828125 286.464844 249.601562 287.214844 232.375 287.96875 C 223.894531 288.339844 215.421875 288.722656 206.941406 289.101562 C 209.277344 287.164062 212.074219 288.28125 214.652344 287.941406 C 219.707031 287.007812 224.816406 286.824219 229.9375 286.535156 C 239.824219 285.972656 249.738281 285.988281 259.601562 285 C 261.800781 284.78125 264.019531 284.941406 266.226562 284.933594 C 268.800781 284.925781 271.347656 284.9375 273.867188 284.113281 C 275.929688 283.441406 278.039062 284.015625 280.078125 284.636719 C 284.699219 283.6875 289.390625 284.324219 294.042969 284.046875 C 297.570312 283.835938 301.078125 284.0625 304.59375 284.160156 C 303.671875 285.15625 303.941406 286.394531 303.933594 287.566406 C 303.902344 291.238281 303.878906 294.917969 303.882812 298.589844 C 303.886719 299.691406 303.835938 300.671875 302.351562 300.613281 Z M 302.351562 300.613281 " fill-opacity="1" fill-rule="nonzero"/><path fill="#5c3935" d="M 204.789062 82.355469 C 201.574219 82.804688 198.457031 81.464844 195.246094 81.855469 C 197.277344 81.257812 199.210938 80.316406 201.359375 80.140625 C 203.417969 79.539062 205.578125 80.324219 207.636719 79.699219 C 213.625 79.945312 219.546875 80.492188 225.203125 82.753906 C 239.730469 88.5625 248.949219 99.535156 255.050781 113.460938 C 257.5625 119.191406 259.875 125.019531 261.234375 131.167969 C 260.871094 131.351562 260.503906 131.539062 260.140625 131.726562 C 258.421875 130.917969 258.511719 129.160156 258.105469 127.710938 C 255.035156 116.726562 250.316406 106.5625 242.746094 97.9375 C 233.613281 87.53125 222.011719 82.175781 208.140625 81.886719 C 206.292969 81.84375 204.46875 81.550781 202.671875 81.558594 C 203.3125 81.921875 204.488281 80.9375 204.789062 82.355469 Z M 204.789062 82.355469 " fill-opacity="1" fill-rule="nonzero"/><path fill="#531a1a" d="M 88.101562 288.574219 C 84.4375 288.503906 80.765625 288.492188 77.105469 288.332031 C 75.4375 288.257812 74.796875 288.789062 74.878906 290.496094 C 74.992188 292.785156 74.832031 295.089844 74.9375 297.378906 C 75.003906 298.796875 74.800781 300.054688 73.886719 301.15625 C 72.453125 300.851562 72.789062 299.675781 72.769531 298.746094 C 72.71875 296.476562 72.53125 294.171875 72.8125 291.9375 C 73.179688 289.011719 72.601562 287.074219 69.261719 286.925781 C 74.117188 286.90625 78.96875 286.882812 83.820312 286.863281 C 85.992188 287.332031 88.160156 287.253906 90.34375 286.882812 C 93.355469 286.378906 96.394531 286.640625 99.421875 286.730469 C 100.34375 286.757812 101.300781 287.023438 101.203125 288.320312 C 99.925781 289.699219 98.269531 288.839844 96.792969 289.046875 C 96.339844 289.109375 95.894531 288.894531 95.445312 288.839844 C 91.425781 288.335938 91.359375 288.453125 91.265625 292.480469 C 91.234375 293.980469 91.9375 295.777344 89.972656 297.003906 C 89.339844 294.796875 89.683594 292.695312 89.691406 290.640625 C 89.699219 289.390625 89.285156 288.765625 88.101562 288.574219 Z M 88.101562 288.574219 " fill-opacity="1" fill-rule="nonzero"/><path fill="#5c3935" d="M 129.828125 127.285156 C 124.640625 136.472656 122.429688 145.875 127.636719 155.875 C 128.433594 157.410156 129.675781 158.421875 130.898438 159.511719 C 130.980469 160.015625 130.882812 160.316406 130.289062 160.0625 C 124.875 156.679688 123.378906 151.28125 123.207031 145.472656 C 122.929688 136.277344 126.539062 128.351562 131.988281 121.15625 C 132.480469 120.9375 132.722656 121.230469 132.929688 121.605469 C 133.003906 121.863281 133.015625 122.128906 132.96875 122.394531 C 131.890625 124.003906 131.230469 125.882812 129.828125 127.285156 Z M 129.828125 127.285156 " fill-opacity="1" fill-rule="nonzero"/><path fill="#5c3935" d="M 132.6875 121.839844 C 132.453125 121.613281 132.222656 121.382812 131.988281 121.15625 C 133.992188 118.164062 136.074219 115.246094 139.167969 113.242188 C 138.339844 115.597656 136.734375 117.488281 135.394531 119.535156 C 134.023438 119.757812 134.226562 121.824219 132.6875 121.839844 Z M 132.6875 121.839844 " fill-opacity="1" fill-rule="nonzero"/><path fill="#38201f" d="M 156.4375 223.671875 C 156.496094 224.132812 156.578125 224.578125 157.058594 224.808594 C 156.859375 226.886719 155.828125 228.28125 153.765625 228.84375 C 153.921875 227.925781 153.804688 227.074219 153.160156 226.347656 C 155.019531 226.390625 155.152344 224.328125 156.4375 223.671875 Z M 156.4375 223.671875 " fill-opacity="1" fill-rule="nonzero"/><path fill="#5c3935" d="M 130.289062 160.0625 C 130.492188 159.882812 130.695312 159.699219 130.898438 159.515625 C 132.074219 159.625 132.753906 160.460938 133.867188 161.417969 C 132.1875 161.449219 131.21875 160.804688 130.289062 160.0625 Z M 130.289062 160.0625 " fill-opacity="1" fill-rule="nonzero"/><path fill="#fde5d1" d="M 205.175781 264.714844 C 205.015625 263.601562 204.855469 262.488281 204.695312 261.375 C 207.292969 259.882812 210.070312 260.832031 212.46875 260.699219 C 210.882812 260.371094 208.960938 260.554688 207.050781 260.480469 C 206.046875 260.441406 205.003906 260.519531 204.214844 259.691406 C 203.9375 258.988281 203.660156 258.285156 203.382812 257.582031 C 203.535156 256.117188 204.75 256.3125 205.667969 256.214844 C 207.394531 256.03125 209.132812 256.207031 210.695312 256.121094 C 207.882812 255.753906 204.796875 256.710938 201.898438 255.355469 C 201.015625 254.71875 200.132812 254.082031 199.25 253.441406 C 206.367188 254.359375 212.789062 251.984375 219.097656 249.105469 C 221.851562 247.097656 224.945312 247.808594 227.910156 248.179688 C 233.1875 248.835938 238.011719 251.019531 242.867188 253.058594 C 243.886719 253.488281 244.886719 253.980469 245.96875 254.234375 C 249.460938 255.050781 251.089844 253.316406 250.144531 249.800781 C 248.871094 245.0625 244.421875 242.117188 239.105469 242.5 C 235.476562 242.757812 232.050781 243.808594 228.671875 245.113281 C 227.578125 245.535156 226.175781 246.714844 225.171875 244.820312 C 228.070312 241.257812 230.296875 237.222656 233.058594 233.558594 C 234.839844 231.191406 237.0625 229.261719 238.980469 227.042969 C 240.855469 224.878906 243.027344 223.039062 245.0625 221.042969 C 239.5625 226.167969 234.222656 231.429688 229.972656 237.699219 C 229.5625 238.304688 228.953125 240.410156 227.539062 238.375 C 227.675781 235.703125 229.085938 233.46875 230.1875 231.175781 C 232.421875 226.527344 235.105469 222.121094 237.992188 217.84375 C 232.292969 225.773438 227.644531 234.242188 224.738281 243.609375 C 224.183594 245.402344 223.554688 247.128906 221.398438 247.621094 C 219.714844 248 218.589844 247.457031 218.484375 245.683594 C 218.253906 241.746094 218.253906 237.808594 218.628906 235.324219 C 218.316406 237.691406 217.96875 241.492188 218.222656 245.339844 C 218.289062 246.300781 218.75 247.410156 217.457031 247.988281 C 212.046875 250.105469 206.601562 251.96875 200.636719 250.835938 C 200.125 250.738281 199.382812 250.761719 199.039062 251.0625 C 195.875 253.863281 192.433594 252.109375 189.132812 251.660156 C 183.132812 250.84375 177.234375 250.332031 171.980469 254.261719 C 171.136719 253.492188 171.160156 252.449219 171.128906 251.445312 C 170.855469 241.96875 171.371094 232.539062 173.113281 223.207031 C 173.402344 221.675781 173.144531 220.058594 173.878906 218.609375 C 174.773438 217.167969 174.777344 215.476562 175.144531 213.890625 C 175.882812 210.679688 176.023438 210.558594 179.351562 210.828125 C 183.039062 210.816406 186.730469 211.136719 190.402344 210.496094 C 191.175781 210.363281 191.890625 210.355469 192.613281 211.140625 C 197.558594 216.507812 203.015625 217.335938 209.457031 213.566406 C 214.070312 210.871094 217.496094 207.050781 218.777344 201.722656 C 219.300781 199.5625 220.328125 199.039062 222.34375 199.664062 C 232.449219 202.792969 240.648438 208.710938 247.058594 217.007812 C 256.882812 229.726562 261.082031 244.375 261.171875 260.292969 C 261.1875 262.683594 260.613281 265.015625 259.808594 267.3125 C 258.132812 272.109375 254.808594 274.597656 249.828125 275.226562 C 241.355469 276.296875 232.882812 276.152344 224.402344 275.46875 C 219.53125 275.074219 214.667969 274.441406 209.761719 274.769531 C 208.65625 274.839844 207.828125 274.800781 207.378906 273.53125 C 206.945312 272.304688 205.691406 272.230469 204.597656 272.101562 C 203.480469 271.96875 203.703125 271.46875 204.175781 270.847656 C 207.128906 269.839844 210.128906 270.90625 213.105469 270.652344 C 213.917969 270.582031 214.738281 270.859375 216.074219 270.769531 C 211.980469 270.113281 208.171875 270.820312 204.742188 269.117188 C 204.75 268.898438 204.761719 268.683594 204.769531 268.464844 C 205.136719 265.496094 205.21875 265.488281 210.207031 265.742188 C 211.667969 266.230469 213.179688 266.261719 214.703125 266.222656 C 214.886719 266.21875 215.0625 266.210938 215.230469 266.179688 C 215.03125 265.769531 214.652344 266.109375 214.371094 265.984375 C 213.664062 265.96875 212.972656 265.914062 212.289062 265.753906 C 210.511719 265.214844 208.679688 265.570312 206.878906 265.429688 C 206.238281 265.371094 205.632812 265.21875 205.175781 264.714844 Z M 205.175781 264.714844 " fill-opacity="1" fill-rule="nonzero"/><path fill="#f4977d" d="M 114.675781 214.957031 C 124.371094 214.957031 134.066406 214.96875 143.757812 214.953125 C 147.414062 214.945312 148.378906 215.503906 149.148438 219.085938 C 152.777344 236.015625 156.765625 252.875 159.203125 270.039062 C 159.851562 274.597656 159.492188 274.953125 154.84375 274.828125 C 135.738281 274.324219 116.632812 273.753906 97.527344 273.394531 C 94.941406 273.347656 93.945312 272.460938 93.386719 270.15625 C 90.222656 257.183594 86.976562 244.226562 83.761719 231.265625 C 82.789062 227.332031 81.75 223.410156 80.867188 219.457031 C 79.867188 214.957031 80.988281 213.96875 85.609375 214.109375 C 94.464844 214.378906 103.328125 214.378906 112.1875 214.488281 C 113.019531 214.5 113.847656 214.492188 114.679688 214.492188 C 114.675781 214.644531 114.675781 214.804688 114.675781 214.957031 Z M 114.675781 214.957031 " fill-opacity="1" fill-rule="nonzero"/><path fill="#fdd9c8" d="M 158.765625 122.414062 C 154.71875 134.269531 153.820312 145.816406 162.132812 156.453125 C 163.046875 157.621094 164.160156 158.5625 165.375 159.394531 C 167.300781 159.890625 168.953125 161.03125 170.824219 161.652344 C 171.617188 162.171875 172.378906 161.265625 173.167969 161.589844 C 177.132812 163.144531 181.257812 163.398438 185.453125 163.125 C 186.105469 163.082031 186.734375 162.988281 186.933594 162.210938 C 186.148438 159.359375 186.964844 158.394531 189.8125 158.828125 C 197.390625 165.054688 206.03125 168.128906 215.875 167.460938 C 217.222656 167.367188 217.425781 167.84375 217.394531 168.96875 C 217.148438 177.785156 219.683594 185.679688 225.351562 192.5 C 226.597656 193.996094 224.960938 194.257812 224.359375 194.699219 C 215.90625 200.839844 206.65625 205.328125 196.390625 207.433594 C 186.753906 209.414062 177.132812 209.457031 167.765625 205.925781 C 164.3125 204.621094 161.027344 202.953125 158.550781 200.066406 C 158.359375 198.570312 159.613281 198.84375 160.390625 198.621094 C 163.070312 197.863281 164.917969 196.109375 165.039062 194.125 C 165.175781 191.90625 163.394531 189.761719 160.613281 188.808594 C 159.140625 188.390625 157.636719 188.390625 156.128906 188.445312 C 154.914062 188.09375 153.871094 189.648438 152.605469 188.773438 C 150.242188 180.261719 147.882812 171.746094 145.4375 162.933594 C 149.976562 163.84375 154.449219 165.171875 159.082031 163.085938 C 157.390625 161.214844 154.8125 160.34375 153.875 157.816406 C 155.359375 156.988281 156.847656 157.855469 158.261719 157.5625 C 158.964844 157.417969 159.839844 157.464844 160.097656 156.601562 C 160.371094 155.691406 159.558594 155.300781 158.996094 154.878906 C 157.472656 153.734375 155.695312 153.613281 153.976562 154.136719 C 152.246094 154.664062 151.722656 153.953125 151.339844 152.433594 C 149.753906 146.117188 150.5625 139.964844 152.570312 133.925781 C 153.984375 129.675781 155.546875 125.472656 157.972656 121.660156 C 158.601562 121.527344 158.894531 121.746094 158.765625 122.414062 Z M 158.765625 122.414062 " fill-opacity="1" fill-rule="nonzero"/><path fill="#fde3cd" d="M 89.929688 286.285156 C 83.800781 285.449219 77.601562 285.757812 71.453125 285.214844 C 70.164062 285.105469 68.847656 285.148438 67.9375 283.980469 C 66.171875 281.707031 67.449219 278.355469 70.34375 278.199219 C 77.246094 277.820312 84.164062 277.671875 91.074219 277.433594 C 91.847656 277.40625 92.453125 277.503906 92.738281 278.464844 C 93.261719 280.234375 94.703125 280.71875 96.402344 280.777344 C 118.226562 281.507812 140.050781 282.644531 161.894531 282.449219 C 173.117188 282.347656 184.34375 281.417969 195.550781 280.65625 C 198.664062 280.441406 200.957031 280.898438 202.035156 284.136719 C 202.230469 284.726562 202.71875 285.21875 203.070312 285.757812 C 203.484375 287.535156 202.058594 287.542969 201.066406 287.601562 C 198.675781 287.746094 196.289062 288.199219 193.910156 288.132812 C 187.261719 287.941406 180.613281 288.375 174.023438 288.875 C 162.941406 289.714844 151.914062 288.707031 140.867188 288.648438 C 128.625 288.582031 116.367188 287.914062 104.113281 287.515625 C 101.25 286.644531 98.292969 286.878906 95.363281 286.855469 C 93.546875 286.707031 91.65625 287.253906 89.929688 286.285156 Z M 89.929688 286.285156 " fill-opacity="1" fill-rule="nonzero"/><path fill="#fde4ce" d="M 209.460938 286.789062 C 204.503906 287.675781 204.40625 283.207031 202.285156 280.472656 C 204.808594 280.15625 206.902344 279.613281 207.957031 277.308594 C 208.289062 276.585938 209.101562 276.816406 209.707031 276.824219 C 213.023438 276.871094 216.363281 276.734375 219.648438 277.089844 C 229.207031 278.117188 238.800781 278.929688 248.304688 277.308594 C 266.640625 274.179688 285.082031 276.632812 303.449219 275.761719 C 304.335938 275.71875 305.257812 276.039062 306.136719 276.28125 C 307.453125 276.640625 308.164062 277.566406 308.128906 278.921875 C 308.085938 280.351562 307.324219 281.421875 305.960938 281.804688 C 304.824219 282.121094 303.609375 282.214844 302.421875 282.28125 C 294.417969 282.722656 286.414062 283.125 278.410156 283.542969 C 274.449219 284.304688 270.449219 284.882812 266.421875 284.886719 C 256.386719 284.898438 246.394531 285.894531 236.371094 286.21875 C 231.457031 286.375 226.453125 286.121094 221.523438 287.0625 C 218.445312 287.652344 215.339844 286.21875 212.195312 286.574219 C 211.289062 286.667969 210.347656 286.410156 209.460938 286.789062 Z M 209.460938 286.789062 " fill-opacity="1" fill-rule="nonzero"/><path fill="#f4967b" d="M 282.765625 253.023438 C 279.816406 247.777344 275.890625 243.660156 271.941406 239.554688 C 271.386719 238.980469 270.902344 238.207031 270.703125 237.441406 C 267.765625 226.148438 261.226562 217.40625 251.859375 210.636719 C 251.730469 210.542969 251.6875 210.324219 251.609375 210.164062 C 272.355469 212.414062 281.347656 223.386719 282.726562 241.578125 C 283.003906 245.238281 282.765625 248.9375 282.765625 253.023438 Z M 282.765625 253.023438 " fill-opacity="1" fill-rule="nonzero"/><path fill="#f3977d" d="M 162.035156 94.679688 C 171.160156 90.082031 180.824219 88.65625 190.71875 90.953125 C 207.511719 94.84375 219.949219 104.785156 228.511719 119.632812 C 229.011719 120.496094 230.847656 121.894531 228.828125 122.675781 C 227.222656 123.296875 225.199219 125.148438 223.457031 122.125 C 217.367188 111.542969 208.722656 103.542969 197.800781 98.113281 C 186.667969 92.574219 175.035156 92.003906 163.125 95.171875 C 162.5625 95.449219 162.019531 95.6875 162.035156 94.679688 Z M 162.035156 94.679688 " fill-opacity="1" fill-rule="nonzero"/><path fill="#fdf4ef" d="M 253.960938 160.03125 C 257.824219 166.71875 259.0625 173.6875 256.226562 181.097656 C 254.4375 184.105469 251.714844 185.230469 248.320312 185.003906 C 243.53125 183.917969 240.730469 180.757812 239.363281 176.226562 C 237.527344 170.140625 237.664062 164.289062 241.777344 159.003906 C 242.644531 157.886719 243.652344 157 245.058594 156.648438 C 248.6875 156.027344 251.625 157.242188 253.960938 160.03125 Z M 253.960938 160.03125 " fill-opacity="1" fill-rule="nonzero"/><path fill="#fdd8c7" d="M 173.0625 256.339844 C 177.765625 251.609375 183.46875 252.878906 189.074219 253.726562 C 191.519531 254.097656 193.917969 254.78125 196.367188 255.105469 C 199.304688 255.492188 200.957031 257.246094 201.8125 259.84375 C 202.894531 263.132812 203.042969 266.492188 202.246094 269.894531 C 201.867188 271.496094 201.105469 272.21875 199.355469 271.972656 C 197.820312 271.757812 196.242188 271.847656 194.679688 271.800781 C 194.246094 271.371094 194.132812 270.796875 194.34375 270.296875 C 195.511719 267.507812 194.179688 266.050781 191.710938 265.128906 C 191.128906 264.910156 190.65625 264.414062 189.980469 264.410156 C 189.027344 264.382812 188.136719 264.78125 187.191406 264.816406 C 185.21875 264.535156 183.144531 264.726562 181.367188 263.566406 C 181.46875 261.152344 183.941406 261.613281 184.890625 260.453125 C 183.949219 260.464844 182.804688 261.105469 181.628906 260.578125 C 180.539062 259.816406 180.136719 258.8125 180.53125 257.523438 C 181.453125 256.097656 183.003906 256.140625 183.980469 255.925781 C 180.613281 255.492188 177.144531 257.085938 173.515625 257.761719 C 172.839844 257.457031 172.628906 256.996094 173.0625 256.339844 Z M 173.0625 256.339844 " fill-opacity="1" fill-rule="nonzero"/><path fill="#fcfcfc" d="M 230.722656 147.09375 C 229.570312 147.808594 228.984375 147.453125 228.523438 146.191406 C 225.839844 138.839844 223.078125 131.511719 220.378906 124.160156 C 220.160156 123.566406 219.542969 122.667969 220.578125 122.3125 C 221.332031 122.058594 221.570312 122.949219 221.859375 123.496094 C 222.25 124.226562 222.558594 125.003906 222.96875 125.722656 C 223.808594 127.191406 223.792969 129.667969 225.75 129.867188 C 228.394531 130.136719 230.960938 128.953125 233.398438 127.886719 C 234.402344 127.445312 234.046875 126.464844 233.730469 125.699219 C 233.066406 124.078125 232.347656 122.484375 231.644531 120.882812 C 231.433594 120.402344 230.925781 119.828125 231.605469 119.476562 C 232.042969 119.25 232.738281 119.347656 233.125 119.828125 C 233.582031 120.398438 234.117188 120.976562 234.347656 121.644531 C 237.253906 130.089844 240.113281 138.554688 242.972656 147.015625 C 243.019531 147.15625 242.910156 147.347656 242.824219 147.761719 C 239.097656 145.976562 235.226562 145.917969 231.304688 146.742188 C 229.640625 142.976562 228.632812 138.984375 227.3125 135.101562 C 226.769531 133.515625 227.390625 132.683594 228.914062 132.246094 C 230.546875 131.78125 232.125 131.132812 233.804688 130.820312 C 231.859375 130.964844 230.128906 131.90625 228.257812 132.355469 C 226.949219 132.671875 226.667969 133.5625 227.136719 134.90625 C 228.34375 138.351562 229.488281 141.824219 230.574219 145.308594 C 230.757812 145.878906 231.261719 146.449219 230.722656 147.09375 Z M 230.722656 147.09375 " fill-opacity="1" fill-rule="nonzero"/><path fill="#fcb8a2" d="M 179.355469 210.828125 C 176.796875 210.429688 176.1875 212.070312 175.882812 214.097656 C 175.652344 215.644531 175.683594 217.277344 174.609375 218.59375 C 173.488281 218.628906 173.753906 219.570312 173.664062 220.171875 C 172.472656 228.269531 170.738281 236.300781 170.945312 244.5625 C 170.980469 245.949219 170.984375 248.152344 169.53125 248.402344 C 167.964844 248.671875 167.578125 246.515625 167.039062 245.21875 C 164.402344 238.84375 163.265625 232.152344 163.140625 225.285156 C 163.125 224.410156 162.410156 225.167969 162.320312 224.726562 C 161.605469 223.160156 161.578125 221.570312 162.035156 219.945312 C 165.710938 216.683594 169.195312 213.164062 173.296875 210.453125 C 175.113281 209.253906 177.332031 210.546875 179.355469 210.828125 Z M 179.355469 210.828125 " fill-opacity="1" fill-rule="nonzero"/><path fill="#fee5d1" d="M 162.035156 219.945312 C 163.011719 221.492188 162.292969 223.230469 162.605469 224.855469 C 163.683594 227.726562 163.371094 230.789062 163.769531 233.753906 C 164.597656 239.929688 166.523438 245.664062 169.503906 251.09375 C 170.140625 252.25 171.199219 253.367188 170.339844 254.875 C 168.628906 253.710938 166.917969 252.542969 165.207031 251.378906 C 162.832031 250.605469 159.9375 251.175781 158.230469 248.675781 C 156.746094 242.0625 155.257812 235.453125 153.769531 228.839844 C 154.820312 227.457031 156.296875 226.425781 157.0625 224.808594 C 158.75 223.222656 160.027344 221.210938 162.035156 219.945312 Z M 162.035156 219.945312 " fill-opacity="1" fill-rule="nonzero"/><path fill="#d26156" d="M 217.460938 247.988281 C 217.652344 243.875 217.164062 239.734375 217.957031 235.636719 C 218.214844 234.308594 218.277344 232.953125 219.367188 231.5 C 219.988281 233.859375 219.035156 235.773438 219.128906 237.726562 C 219.238281 239.84375 219.027344 241.976562 219.148438 244.089844 C 219.210938 245.136719 218.449219 246.863281 220.167969 247.050781 C 221.675781 247.214844 223.058594 246.722656 223.644531 244.695312 C 225.464844 238.386719 228.085938 232.375 231.421875 226.714844 C 233.335938 223.464844 235.472656 220.339844 237.605469 217.226562 C 238.117188 216.476562 238.707031 215.546875 240.28125 215.492188 C 235.453125 223.070312 230.710938 230.34375 227.84375 238.605469 C 227.855469 240.898438 227.011719 242.886719 225.675781 244.703125 C 226.757812 245.074219 226.996094 245.101562 228.75 244.351562 C 231.996094 242.960938 235.332031 242.019531 238.871094 241.707031 C 244.65625 241.195312 249.742188 244.609375 250.996094 249.972656 C 251.398438 251.679688 251.316406 253.355469 250.042969 254.636719 C 248.742188 255.949219 247.078125 255.476562 245.617188 254.941406 C 241.289062 253.355469 237.050781 251.527344 232.691406 250.035156 C 228.28125 248.523438 223.726562 248.023438 219.101562 249.105469 C 219.570312 247.238281 217.988281 248.386719 217.460938 247.988281 Z M 217.460938 247.988281 " fill-opacity="1" fill-rule="nonzero"/><path fill="#fcfcfc" d="M 254.539062 184.386719 C 251.347656 189.6875 246.429688 190.671875 241.484375 187 C 233.515625 181.085938 230.726562 166.441406 236.085938 158.136719 C 239.574219 152.738281 247.335938 150.945312 251.269531 156.703125 C 249.25 157.527344 247.285156 155.574219 245.261719 156.585938 C 241.703125 157.859375 239.878906 160.753906 238.941406 164.082031 C 237.304688 169.867188 237.558594 175.527344 241.15625 180.695312 C 242.511719 182.652344 244.304688 184.007812 246.472656 184.921875 C 248.359375 185.507812 250.183594 185.429688 252.019531 184.617188 C 252.777344 184.277344 253.625 183.625 254.539062 184.386719 Z M 254.539062 184.386719 " fill-opacity="1" fill-rule="nonzero"/><path fill="#391413" d="M 103.90625 286.792969 C 122.972656 287.273438 142.035156 287.769531 161.101562 288.230469 C 174.65625 288.554688 188.160156 287.257812 201.695312 286.910156 C 202.511719 286.886719 203.179688 286.828125 203.070312 285.761719 C 204.214844 286.695312 202.878906 287.589844 203.027344 288.503906 C 200.4375 289.265625 197.785156 289.046875 195.128906 289.140625 C 189.515625 289.34375 183.902344 289.566406 178.289062 289.792969 C 171.207031 290.070312 164.15625 290.6875 157.03125 290.296875 C 151.808594 290.011719 146.535156 290.3125 141.289062 290.175781 C 136.035156 290.039062 130.78125 290 125.542969 289.578125 C 121.417969 288.878906 117.238281 289.664062 113.109375 289.085938 C 112.792969 289.078125 112.472656 289.074219 112.152344 289.066406 C 109.683594 288.761719 107.207031 288.449219 104.730469 289.023438 C 103.480469 288.949219 102.152344 289.464844 101.027344 288.515625 C 100.726562 287 99.507812 287.449219 98.582031 287.4375 C 94.527344 287.398438 90.472656 287.433594 86.414062 287.402344 C 85.53125 287.394531 84.546875 287.703125 83.820312 286.867188 C 85.84375 286.550781 87.992188 287.511719 89.929688 286.285156 C 91.605469 285.953125 93.269531 286.238281 94.9375 286.371094 C 97.90625 286.996094 100.9375 286.195312 103.90625 286.792969 Z M 103.90625 286.792969 " fill-opacity="1" fill-rule="nonzero"/><path fill="#561b1a" d="M 125.410156 289.074219 C 131.453125 290.054688 137.585938 289.070312 143.601562 289.738281 C 149.28125 290.367188 154.90625 289.160156 160.589844 290.089844 C 167.339844 291.191406 174.015625 288.507812 180.824219 289.054688 C 186.394531 289.503906 191.929688 287.867188 197.5625 288.832031 C 199.242188 289.117188 201.183594 288.488281 203.023438 288.507812 C 203.46875 288.535156 203.882812 288.617188 204.125 289.046875 C 200.726562 289.253906 197.332031 289.640625 193.933594 289.609375 C 191.6875 289.585938 191.605469 290.875 191.578125 292.398438 C 191.527344 295.3125 192.042969 298.246094 191.238281 301.128906 C 188.832031 301.832031 189.441406 299.863281 189.394531 298.835938 C 189.292969 296.632812 189.46875 294.421875 189.507812 292.210938 C 189.535156 290.679688 189.03125 289.886719 187.222656 290.042969 C 183.453125 290.367188 179.664062 290.503906 175.882812 290.625 C 174.292969 290.679688 173.53125 291.164062 173.695312 292.925781 C 173.855469 294.660156 173.75 296.425781 173.699219 298.175781 C 173.671875 299.132812 174.042969 300.648438 172.773438 300.722656 C 171.207031 300.816406 171.90625 299.195312 171.832031 298.355469 C 171.679688 296.613281 171.695312 294.84375 171.808594 293.097656 C 171.925781 291.378906 171.511719 290.71875 169.554688 290.75 C 152.011719 291.050781 134.476562 290.335938 116.941406 290.023438 C 109.464844 289.886719 101.984375 289.628906 94.523438 289.191406 C 91.976562 289.039062 91.441406 289.875 91.417969 292.226562 C 91.390625 295.210938 92.167969 298.285156 90.855469 301.199219 C 89.375 301.152344 89.433594 300.050781 89.425781 299.054688 C 89.402344 296.417969 89.375 293.785156 89.4375 291.15625 C 89.464844 289.996094 89.425781 288.980469 88.097656 288.574219 C 89.378906 288.398438 89.96875 288.902344 89.929688 290.246094 C 89.875 292.257812 89.917969 294.269531 89.917969 296.757812 C 91.546875 294.871094 91 293.054688 90.976562 291.417969 C 90.953125 289.476562 91.179688 288.253906 93.621094 288.464844 C 96.070312 288.675781 98.550781 288.511719 101.019531 288.511719 C 102.308594 288.511719 103.59375 288.515625 104.878906 288.515625 C 107.28125 288.019531 109.6875 288.910156 112.089844 288.523438 C 112.277344 288.523438 112.460938 288.523438 112.648438 288.523438 C 115.796875 289.285156 118.988281 288.761719 122.160156 288.824219 C 123.246094 288.84375 124.367188 288.535156 125.410156 289.074219 Z M 125.410156 289.074219 " fill-opacity="1" fill-rule="nonzero"/><path fill="#d36357" d="M 170.335938 254.875 C 169.898438 252.058594 167.878906 249.992188 166.78125 247.46875 C 163.632812 240.21875 162.328125 232.699219 162.605469 224.855469 C 162.871094 224.3125 163.136719 223.769531 163.503906 223.019531 C 164.097656 231.859375 165.070312 240.417969 169.597656 248.191406 C 170.207031 237.429688 171.285156 226.78125 174.179688 216.105469 C 175.011719 217.054688 174.546875 217.863281 174.609375 218.59375 C 173.011719 228.203125 171.605469 237.832031 171.832031 247.621094 C 171.886719 249.832031 171.933594 252.046875 171.984375 254.261719 C 171.515625 254.679688 171.28125 255.726562 170.335938 254.875 Z M 170.335938 254.875 " fill-opacity="1" fill-rule="nonzero"/><path fill="#371415" d="M 209.460938 286.789062 C 215.582031 285.984375 221.753906 286.140625 227.902344 285.820312 C 244.09375 284.972656 260.289062 284.257812 276.484375 283.496094 C 277.125 283.46875 277.769531 283.519531 278.410156 283.539062 C 278.964844 283.902344 279.519531 284.265625 280.074219 284.632812 C 268.875 285.914062 257.589844 285.785156 246.371094 286.78125 C 241.972656 287.171875 237.5625 286.835938 233.132812 287.28125 C 227.011719 287.890625 220.816406 287.757812 214.652344 287.941406 C 215.183594 287.679688 215.714844 287.417969 216.996094 286.789062 C 213.992188 286.789062 211.726562 286.789062 209.460938 286.789062 Z M 209.460938 286.789062 " fill-opacity="1" fill-rule="nonzero"/><path fill="#5c3835" d="M 137.472656 195.871094 C 133.421875 194.574219 130.253906 191.898438 129.457031 187.535156 C 128.566406 182.652344 129.5 177.957031 133.640625 173.800781 C 133.234375 181.78125 137.894531 188.199219 137.472656 195.871094 Z M 137.472656 195.871094 " fill-opacity="1" fill-rule="nonzero"/><path fill="#f8cab6" d="M 189.8125 158.828125 C 187.523438 158.824219 186.785156 160.140625 186.933594 162.210938 C 180.742188 158.082031 178.410156 151.609375 176.613281 144.902344 C 175.855469 142.078125 175.640625 139.109375 175.179688 136.207031 C 175.222656 135.601562 174.425781 134.683594 175.785156 134.570312 C 177.648438 141.632812 180.867188 147.976562 185.007812 154.03125 C 186.410156 156.078125 188.234375 157.222656 189.8125 158.828125 Z M 189.8125 158.828125 " fill-opacity="1" fill-rule="nonzero"/><path fill="#fcbea9" d="M 152.605469 188.777344 C 153.8125 188.75 154.554688 187.3125 155.898438 187.691406 C 155.996094 187.855469 156.042969 188.03125 156.027344 188.210938 C 155.945312 189.25 154.898438 190.472656 156.027344 191.28125 C 157.109375 192.058594 158.484375 191.515625 159.761719 191.304688 C 162.070312 190.921875 159.859375 189.027344 160.867188 188.253906 C 163.6875 188.796875 165.984375 191.542969 165.855469 194.214844 C 165.746094 196.433594 163.261719 198.9375 160.761719 199.296875 C 159.964844 199.410156 159.066406 199.164062 158.550781 200.0625 C 155.214844 197.015625 153.128906 193.304688 152.605469 188.777344 Z M 152.605469 188.777344 " fill-opacity="1" fill-rule="nonzero"/><path fill="#f3ccb8" d="M 173.167969 161.59375 C 172.441406 161.988281 172.046875 163.441406 170.851562 162.304688 C 169.753906 160.683594 167.304688 160.765625 166.449219 158.839844 C 155.441406 148.265625 156.316406 135.773438 160.628906 122.011719 C 160.808594 123.136719 160.878906 123.5625 160.949219 123.988281 C 159.125 133.390625 158.945312 142.640625 163.230469 151.550781 C 165.398438 156.066406 168.980469 159.113281 173.167969 161.59375 Z M 173.167969 161.59375 " fill-opacity="1" fill-rule="nonzero"/><path fill="#f8f8f7" d="M 146.410156 192.34375 C 135.90625 187.925781 132.105469 172.457031 139.050781 164.53125 C 137.726562 174.636719 139.675781 183.804688 146.410156 192.34375 Z M 146.410156 192.34375 " fill-opacity="1" fill-rule="nonzero"/><path fill="#faad93" d="M 165.828125 254.324219 C 169.210938 256.199219 169.210938 256.199219 166.96875 261.398438 C 166.457031 263.234375 166.652344 265.167969 166.175781 267 C 165.75 268.636719 164.921875 269.683594 163.054688 268.609375 C 162.171875 265.683594 161.289062 262.761719 160.886719 259.71875 C 161.667969 257.484375 162.964844 255.660156 165.082031 254.492188 C 165.324219 254.417969 165.574219 254.363281 165.828125 254.324219 Z M 165.828125 254.324219 " fill-opacity="1" fill-rule="nonzero"/><path fill="#fdd8c7" d="M 190.214844 263.65625 C 191.417969 264.226562 192.660156 264.71875 193.804688 265.382812 C 195.378906 266.296875 196.207031 267.539062 195.285156 269.453125 C 194.945312 270.167969 194.875 271.015625 194.679688 271.800781 C 190.808594 271.695312 186.917969 272.132812 183.070312 271.375 C 183.371094 268.722656 185.757812 267.738281 187.339844 266.128906 C 188.21875 265.234375 189.5 264.765625 190.214844 263.65625 Z M 190.214844 263.65625 " fill-opacity="1" fill-rule="nonzero"/><path fill="#fdd8c7" d="M 180.828125 257.488281 C 180.765625 258.621094 181.089844 259.589844 181.988281 260.328125 C 182.042969 261.027344 181.511719 261.28125 181.03125 261.523438 C 177.34375 263.378906 174.914062 266.195312 174.191406 270.34375 C 174.125 270.714844 173.871094 270.996094 173.582031 271.238281 C 170.085938 270.304688 169.058594 268.074219 170.65625 264.699219 C 171.152344 263.660156 171.875 262.726562 172.492188 261.746094 C 173.238281 260.863281 173.785156 259.796875 174.851562 259.214844 C 176.785156 258.453125 178.429688 256.664062 180.828125 257.488281 Z M 180.828125 257.488281 " fill-opacity="1" fill-rule="nonzero"/><path fill="#f1a28d" d="M 198.125 212.816406 C 204.339844 210.8125 209.140625 207.277344 213.769531 203.457031 C 214.222656 203.082031 214.746094 202.085938 215.589844 202.914062 C 216.117188 203.429688 216.492188 204.039062 215.984375 204.867188 C 212.253906 210.957031 204.300781 215.089844 198.125 212.816406 Z M 198.125 212.816406 " fill-opacity="1" fill-rule="nonzero"/><path fill="#fdd8c7" d="M 181.417969 263.074219 C 183.359375 263.941406 185.496094 263.769531 187.519531 264.195312 C 187.523438 264.289062 187.5625 264.4375 187.523438 264.460938 C 184.421875 266.367188 181.867188 268.945312 179.113281 271.277344 C 177.855469 271.503906 176.597656 271.535156 175.335938 271.300781 C 175.238281 267.714844 178.109375 263.832031 181.417969 263.074219 Z M 181.417969 263.074219 " fill-opacity="1" fill-rule="nonzero"/><path fill="#251014" d="M 181.417969 263.074219 C 178.355469 265.050781 176.382812 267.832031 175.339844 271.300781 C 174.753906 271.28125 174.167969 271.261719 173.582031 271.238281 C 173.648438 265.496094 177.285156 262.5 181.988281 260.328125 C 183.667969 260.113281 185.289062 259.128906 187.40625 260.0625 C 185.25 261.148438 183.335938 262.113281 181.417969 263.074219 Z M 181.417969 263.074219 " fill-opacity="1" fill-rule="nonzero"/><path fill="#f8d0bb" d="M 270.402344 240.195312 C 266.285156 240.042969 262.414062 235.753906 262.835938 232.136719 C 263.042969 230.375 263.992188 230.316406 265.296875 230.980469 C 266.617188 231.652344 267.246094 232.882812 267.757812 234.175781 C 268.53125 236.125 269.09375 238.164062 270.402344 240.195312 Z M 270.402344 240.195312 " fill-opacity="1" fill-rule="nonzero"/><path fill="#f6c7b0" d="M 268.261719 258.152344 C 268.449219 256.992188 268.300781 255.089844 270.363281 255.226562 C 272.800781 255.386719 273.1875 257.503906 273.296875 259.457031 C 273.390625 261.128906 272.832031 262.636719 270.90625 262.902344 C 269.441406 263.105469 268.253906 260.988281 268.261719 258.152344 Z M 268.261719 258.152344 " fill-opacity="1" fill-rule="nonzero"/><path fill="#451f1e" d="M 179.113281 271.277344 C 181.144531 268.003906 183.925781 265.617188 187.519531 264.199219 C 188.417969 264.019531 189.320312 263.835938 190.214844 263.65625 C 191.128906 264.996094 189.796875 265.148438 189.148438 265.578125 C 186.785156 267.164062 184.703125 269.03125 183.066406 271.375 C 181.75 271.34375 180.429688 271.308594 179.113281 271.277344 Z M 179.113281 271.277344 " fill-opacity="1" fill-rule="nonzero"/><path fill="#eda89b" d="M 230.722656 147.09375 C 229.304688 143.023438 227.929688 138.941406 226.453125 134.898438 C 225.816406 133.152344 226.160156 132.15625 228.066406 131.714844 C 230.660156 131.109375 233.074219 129.648438 236.429688 130.027344 C 234.15625 131.917969 231.738281 132.140625 229.566406 132.65625 C 227.429688 133.160156 227.457031 134.019531 228.039062 135.699219 C 229.289062 139.328125 230.847656 142.871094 231.308594 146.738281 C 231.113281 146.855469 230.917969 146.972656 230.722656 147.09375 Z M 230.722656 147.09375 " fill-opacity="1" fill-rule="nonzero"/><path fill="#f2bfa7" d="M 280.601562 269.980469 C 281.082031 268.621094 280.652344 266.34375 283.226562 266.359375 C 285.222656 266.371094 285.203125 268.035156 285.117188 269.402344 C 285 271.3125 284.09375 272.96875 282.027344 272.972656 C 280.457031 272.976562 280.628906 271.359375 280.601562 269.980469 Z M 280.601562 269.980469 " fill-opacity="1" fill-rule="nonzero"/><path fill="#dc7466" d="M 204.742188 269.113281 C 209.0625 269.550781 213.464844 269.316406 217.695312 270.816406 C 213.1875 271.949219 208.683594 271.324219 204.179688 270.847656 C 204.367188 270.269531 204.554688 269.6875 204.742188 269.113281 Z M 204.742188 269.113281 " fill-opacity="1" fill-rule="nonzero"/><path fill="#bf5a4f" d="M 163.054688 268.609375 C 164.414062 268.808594 165.230469 268.535156 165.46875 266.878906 C 165.734375 265.019531 166.449219 263.21875 166.96875 261.394531 C 166.648438 263.96875 167.339844 266.460938 167.507812 268.992188 C 167.550781 269.648438 168.855469 271.214844 166.886719 271.21875 C 165.460938 271.21875 163.34375 272.097656 163.070312 269.429688 C 163.042969 269.15625 163.058594 268.882812 163.054688 268.609375 Z M 163.054688 268.609375 " fill-opacity="1" fill-rule="nonzero"/><path fill="#e88f7f" d="M 201.902344 255.355469 C 205.71875 255.453125 209.597656 254.769531 213.726562 256.117188 C 212.230469 257.414062 210.816406 256.757812 209.554688 256.9375 C 207.507812 257.234375 205.335938 256.339844 203.386719 257.582031 C 202.890625 256.839844 202.398438 256.097656 201.902344 255.355469 Z M 201.902344 255.355469 " fill-opacity="1" fill-rule="nonzero"/><path fill="#e2816e" d="M 204.214844 259.691406 C 207.980469 259.683594 211.761719 259.480469 215.402344 260.875 C 211.863281 261.835938 208.257812 261.132812 204.695312 261.375 C 204.539062 260.816406 204.378906 260.253906 204.214844 259.691406 Z M 204.214844 259.691406 " fill-opacity="1" fill-rule="nonzero"/><path fill="#ce685d" d="M 158.230469 248.675781 C 160.328125 250.160156 163.144531 249.804688 165.207031 251.378906 C 164.074219 251.308594 163.417969 251.675781 163.753906 252.957031 C 162.480469 253.777344 160.570312 253.097656 159.625 254.695312 C 159.164062 252.6875 158.695312 250.683594 158.230469 248.675781 Z M 158.230469 248.675781 " fill-opacity="1" fill-rule="nonzero"/><path fill="#523331" d="M 142.929688 193.539062 C 145.625 194.527344 149.035156 193.695312 150.808594 196.738281 C 147.707031 197.441406 145.15625 196.511719 142.929688 193.539062 Z M 142.929688 193.539062 " fill-opacity="1" fill-rule="nonzero"/><path fill="#f7d7c6" d="M 159.625 254.691406 C 159.640625 250.882812 162.21875 253.164062 163.753906 252.953125 C 164.445312 253.410156 165.136719 253.863281 165.828125 254.320312 C 165.648438 254.460938 165.46875 254.605469 165.285156 254.746094 C 163.359375 255.046875 162.246094 257.105469 160.183594 257.105469 C 159.476562 256.421875 160.042969 255.445312 159.625 254.691406 Z M 159.625 254.691406 " fill-opacity="1" fill-rule="nonzero"/><path fill="#dc7466" d="M 205.175781 264.714844 C 205.753906 264.726562 206.332031 264.738281 206.910156 264.75 C 208.746094 265.386719 210.699219 264.585938 212.535156 265.203125 C 213.246094 265.238281 213.957031 265.269531 214.667969 265.304688 C 215.15625 265.695312 215.980469 265.3125 216.515625 266.3125 C 214.484375 266.832031 212.578125 266.707031 210.65625 266.414062 C 209.761719 266.410156 208.835938 266.542969 207.972656 266.378906 C 206.164062 266.035156 205.152344 266.710938 204.773438 268.460938 C 204.617188 267.179688 204.796875 265.9375 205.175781 264.714844 Z M 205.175781 264.714844 " fill-opacity="1" fill-rule="nonzero"/><path fill="#df958b" d="M 245.0625 156.015625 C 247.300781 154.691406 249.21875 156.308594 251.269531 156.699219 C 252.617188 157.445312 253.453125 158.605469 253.957031 160.027344 C 251.222656 158.457031 248.613281 156.503906 245.148438 157.210938 C 244.796875 156.835938 245.148438 156.410156 245.0625 156.015625 Z M 245.0625 156.015625 " fill-opacity="1" fill-rule="nonzero"/><path fill="#db8b80" d="M 254.539062 184.386719 C 251.828125 185.363281 249.214844 187.046875 246.164062 185.523438 C 247.046875 184.25 248.386719 185.511719 249.394531 184.984375 C 248.792969 185.300781 248.449219 185.195312 248.472656 184.425781 C 251.550781 184.464844 254.101562 183.273438 256.226562 181.097656 C 256.070312 182.402344 255.421875 183.453125 254.539062 184.386719 Z M 254.539062 184.386719 " fill-opacity="1" fill-rule="nonzero"/><path fill="#553435" d="M 231.484375 125.726562 C 231.578125 126.152344 231.261719 126.464844 230.792969 126.609375 C 229.570312 126.980469 228.347656 127.335938 227.109375 127.644531 C 226.460938 127.804688 225.828125 127.324219 225.90625 126.839844 C 226.25 124.730469 228.382812 125.667969 229.550781 124.875 C 230.375 124.316406 231.132812 124.515625 231.484375 125.726562 Z M 231.484375 125.726562 " fill-opacity="1" fill-rule="nonzero"/><path fill="#dd7f6f" d="M 160.183594 257.109375 C 161.796875 256.128906 163.011719 254.300781 165.285156 254.75 C 163.414062 256.050781 162.511719 258.203125 160.890625 259.71875 C 160.652344 258.851562 160.417969 257.980469 160.183594 257.109375 Z M 160.183594 257.109375 " fill-opacity="1" fill-rule="nonzero"/><path fill="#e9b7a4" d="M 173.0625 256.339844 C 173.136719 256.847656 173.246094 257.335938 173.769531 257.585938 C 173.84375 257.84375 173.824219 258.09375 173.722656 258.335938 C 173.214844 259.316406 172.277344 259.761719 171.359375 260.238281 C 170.246094 260.566406 170.324219 262.132812 168.890625 262.535156 C 169.832031 259.964844 170.957031 257.835938 173.0625 256.339844 Z M 173.0625 256.339844 " fill-opacity="1" fill-rule="nonzero"/><path fill="#451f1e" d="M 171.359375 260.238281 C 171.914062 259.277344 172.820312 258.703125 173.695312 258.089844 C 175.355469 257.820312 175.28125 258.683594 174.808594 259.800781 C 174.035156 260.449219 173.265625 261.097656 172.492188 261.75 C 172.550781 260.917969 172.359375 260.273438 171.359375 260.238281 Z M 171.359375 260.238281 " fill-opacity="1" fill-rule="nonzero"/><path fill="#dbaa9c" d="M 158.765625 122.414062 C 158.5 122.164062 158.234375 121.914062 157.96875 121.660156 C 158.757812 120.21875 159.546875 118.777344 160.332031 117.332031 C 160.917969 119.367188 159.4375 120.765625 158.765625 122.414062 Z M 158.765625 122.414062 " fill-opacity="1" fill-rule="nonzero"/><path fill="#826058" d="M 175.789062 134.566406 C 175.140625 134.949219 175.441406 135.683594 175.179688 136.203125 C 174.199219 134.40625 175.003906 132.53125 175.101562 130.65625 C 175.332031 131.960938 175.558594 133.265625 175.789062 134.566406 Z M 175.789062 134.566406 " fill-opacity="1" fill-rule="nonzero"/><path fill="#ca7d6c" d="M 162.035156 94.679688 C 162.398438 94.84375 162.761719 95.007812 163.125 95.167969 C 161.921875 96.023438 160.488281 96.214844 158.550781 96.890625 C 159.839844 95.5625 160.851562 94.992188 162.035156 94.679688 Z M 162.035156 94.679688 " fill-opacity="1" fill-rule="nonzero"/><path fill="#e98e78" d="M 142.496094 119.445312 C 142.929688 116.890625 144.308594 114.496094 146.75 112.742188 C 147.210938 112.414062 147.789062 112.195312 148.273438 112.59375 C 148.484375 112.769531 148.605469 113.324219 148.488281 113.574219 C 147.308594 116.042969 146.785156 118.878906 144.546875 120.765625 C 144.0625 121.171875 143.582031 121.792969 142.878906 121.378906 C 142.347656 121.066406 142.527344 120.398438 142.496094 119.445312 Z M 142.496094 119.445312 " fill-opacity="1" fill-rule="nonzero"/><path fill="#e58873" d="M 152.660156 112.847656 C 152.453125 116.078125 151.175781 118.402344 149.484375 120.546875 C 149.144531 120.976562 148.632812 121.332031 148.070312 120.867188 C 147.601562 120.476562 147.542969 119.886719 147.757812 119.359375 C 148.753906 116.914062 150.007812 114.648438 152.660156 112.847656 Z M 152.660156 112.847656 " fill-opacity="1" fill-rule="nonzero"/><path fill="#e28b74" d="M 181.957031 118.296875 C 182.082031 117.609375 182.144531 117.0625 182.285156 116.53125 C 182.414062 116.035156 182.332031 115.3125 183.050781 115.25 C 183.726562 115.191406 183.953125 115.8125 184.078125 116.339844 C 184.449219 117.949219 184.792969 119.566406 185.09375 121.191406 C 185.214844 121.859375 185.046875 122.582031 184.351562 122.8125 C 183.421875 123.117188 183.007812 122.34375 182.789062 121.648438 C 182.429688 120.519531 182.210938 119.339844 181.957031 118.296875 Z M 181.957031 118.296875 " fill-opacity="1" fill-rule="nonzero"/><path fill="#dc8872" d="M 186.953125 118.246094 C 187.027344 117.507812 187.035156 116.445312 187.746094 116.675781 C 189.117188 117.113281 189.355469 118.574219 189.515625 119.839844 C 189.605469 120.523438 189.363281 121.667969 188.476562 121.390625 C 187.011719 120.933594 187.273438 119.324219 186.953125 118.246094 Z M 186.953125 118.246094 " fill-opacity="1" fill-rule="nonzero"/><path fill="#81534c" d="M 166.449219 158.839844 C 167.902344 160.015625 170.300781 159.988281 170.851562 162.304688 C 168.84375 161.683594 166.886719 160.957031 165.375 159.394531 C 165.820312 159.378906 166.238281 159.304688 166.449219 158.839844 Z M 166.449219 158.839844 " fill-opacity="1" fill-rule="nonzero"/><path fill="#5c3935" d="M 204.789062 82.355469 C 204.054688 81.738281 203.117188 81.773438 202.097656 81.59375 C 211.910156 80.613281 221.125 81.941406 229.800781 86.589844 C 240.128906 92.117188 246.992188 100.773438 252.359375 110.859375 C 255.878906 117.472656 257.980469 124.609375 260.140625 131.726562 C 260.421875 134.308594 261.558594 136.730469 261.574219 140.042969 C 259.742188 137.460938 258.804688 135.070312 258.007812 132.636719 C 255.835938 125.976562 253.875 119.21875 250.601562 112.996094 C 240.890625 94.53125 225.699219 84.144531 204.789062 82.355469 Z M 204.789062 82.355469 " fill-opacity="1" fill-rule="nonzero"/><path fill="#d3675b" d="M 223.570312 206.574219 C 221.957031 210.753906 219.582031 214.355469 216.035156 217.210938 C 208.65625 223.160156 199.320312 223.914062 191.324219 218.925781 C 188.972656 217.460938 187.074219 215.535156 187.167969 212.367188 C 189.746094 216.773438 193.773438 218.886719 198.539062 219.847656 C 208.949219 221.941406 217.824219 215.179688 221.734375 207.878906 C 222.167969 207.070312 222.589844 206.257812 223.011719 205.445312 C 224.082031 205.386719 223.792969 205.996094 223.570312 206.574219 Z M 223.570312 206.574219 " fill-opacity="1" fill-rule="nonzero"/><path fill="#f4ad97" d="M 225.675781 244.699219 C 226.242188 242.609375 226.695312 240.484375 227.84375 238.601562 C 230.535156 237.226562 231.515625 234.359375 233.328125 232.222656 C 236.796875 228.132812 240.675781 224.46875 244.550781 220.792969 C 244.984375 220.378906 245.640625 220.207031 246.855469 219.578125 C 244.613281 222.910156 241.824219 224.722656 239.621094 227.054688 C 235.160156 231.769531 231.261719 236.839844 227.871094 242.34375 C 227.308594 243.257812 226.90625 244.382812 225.675781 244.699219 Z M 225.675781 244.699219 " fill-opacity="1" fill-rule="nonzero"/><path fill="#e08272" d="M 210.65625 266.417969 C 212.335938 266.417969 214.007812 266.417969 216.15625 266.417969 C 215.414062 265.863281 215.039062 265.585938 214.667969 265.304688 C 215.296875 265.355469 215.941406 265.328125 216.542969 265.480469 C 216.824219 265.550781 217.199219 265.9375 217.226562 266.214844 C 217.285156 266.820312 216.722656 266.90625 216.285156 266.875 C 214.410156 266.730469 212.476562 267.25 210.65625 266.417969 Z M 210.65625 266.417969 " fill-opacity="1" fill-rule="nonzero"/><path fill="#df887c" d="M 223.570312 206.574219 C 223.382812 206.199219 223.199219 205.820312 223.011719 205.445312 C 222.914062 204.246094 223.355469 203.25 224.148438 201.875 C 224.839844 203.898438 224.265625 205.246094 223.570312 206.574219 Z M 223.570312 206.574219 " fill-opacity="1" fill-rule="nonzero"/><path fill="#e08272" d="M 212.535156 265.203125 C 210.660156 265.082031 208.714844 265.75 206.910156 264.75 C 208.792969 264.820312 210.71875 264.320312 212.535156 265.203125 Z M 212.535156 265.203125 " fill-opacity="1" fill-rule="nonzero"/><path fill="#fbb9a3" d="M 118.640625 251.402344 C 115.316406 251.382812 113.132812 249 113.210938 245.46875 C 113.265625 242.75 115.726562 240.277344 118.296875 240.355469 C 121.035156 240.4375 123.753906 243.375 123.679688 246.375 C 123.605469 249.105469 121.148438 251.996094 118.640625 251.402344 Z M 118.640625 251.402344 " fill-opacity="1" fill-rule="nonzero"/><path fill="#fbbea9" d="M 205.566406 184.941406 C 207.664062 184.710938 209.644531 185.136719 211.535156 185.882812 C 215.519531 187.457031 216.414062 190.851562 213.816406 194.253906 C 210.933594 198.023438 202.800781 199.554688 198.867188 196.894531 C 197.238281 195.792969 195.484375 194.539062 195.800781 192.050781 C 196.167969 189.164062 197.679688 187.101562 200.214844 185.792969 C 201.890625 184.933594 203.726562 184.746094 205.566406 184.941406 Z M 205.566406 184.941406 " fill-opacity="1" fill-rule="nonzero"/><path fill="#261015" d="M 200.183594 183.175781 C 196.9375 185.445312 195.339844 185.023438 192.027344 181.015625 C 190.835938 179.371094 190.378906 177.539062 190.722656 175.542969 C 191.097656 173.355469 193.089844 171.914062 195.09375 172.308594 C 198.90625 173.066406 201.957031 179.570312 200.183594 183.175781 Z M 200.183594 183.175781 " fill-opacity="1" fill-rule="nonzero"/><path fill="#251015" d="M 165.308594 184.347656 C 162.898438 185.933594 161.070312 185.699219 159.214844 183.476562 C 158.589844 182.726562 158.128906 181.84375 157.59375 181.019531 C 155.59375 179.25 155.972656 177.035156 156.730469 174.960938 C 157.390625 173.152344 159.785156 172.648438 161.695312 173.640625 C 165.027344 175.363281 166.863281 180.804688 165.308594 184.347656 Z M 165.308594 184.347656 " fill-opacity="1" fill-rule="nonzero"/><path fill="#faf9f9" d="M 200.183594 183.175781 C 200.988281 179.457031 199.382812 176.554688 196.925781 174.027344 C 196.035156 173.109375 194.882812 172.371094 193.457031 172.953125 C 191.910156 173.589844 191.371094 174.875 191.222656 176.453125 C 191.070312 178.0625 191.792969 179.492188 192.027344 181.019531 C 189.570312 179.382812 189.671875 176.859375 189.703125 174.363281 C 190.5625 170.382812 193.550781 168.613281 197.210938 169.992188 C 200.058594 171.066406 202.535156 172.570312 203.085938 175.941406 C 203.925781 178.582031 204.054688 181.089844 201.742188 183.148438 C 201.21875 183.613281 200.71875 183.953125 200.183594 183.175781 Z M 200.183594 183.175781 " fill-opacity="1" fill-rule="nonzero"/><path fill="#f8f7f7" d="M 165.308594 184.347656 C 165.519531 181.351562 165.273438 178.457031 163.320312 175.988281 C 162.160156 174.519531 160.898438 172.972656 158.746094 173.855469 C 156.726562 174.675781 156.851562 176.601562 156.984375 178.355469 C 157.054688 179.253906 157.378906 180.132812 157.59375 181.019531 C 157.460938 181.699219 157.109375 182.132812 156.585938 181.398438 C 155.308594 179.597656 154.082031 177.742188 154.652344 175.332031 C 154.101562 172.472656 156.191406 170.164062 159.09375 170.523438 C 161.152344 170.777344 162.933594 171.644531 164.234375 173.335938 C 165.167969 174.636719 166.511719 175.714844 166.535156 177.519531 C 166.773438 179.910156 168.367188 182.542969 165.308594 184.347656 Z M 165.308594 184.347656 " fill-opacity="1" fill-rule="nonzero"/><path fill="#331c1c" d="M 203.085938 175.941406 C 201.878906 173.96875 200.570312 172.132812 198.363281 171.09375 C 194.414062 169.230469 192.636719 169.871094 189.703125 174.359375 C 188.644531 172.078125 189.941406 169.269531 192.480469 168.34375 C 196.539062 166.859375 203.097656 170.996094 203.566406 175.363281 C 203.585938 175.539062 203.253906 175.75 203.085938 175.941406 Z M 203.085938 175.941406 " fill-opacity="1" fill-rule="nonzero"/><path fill="#f5a68f" d="M 160.867188 188.253906 C 162.394531 191.773438 161.839844 192.523438 157.882812 192.3125 C 154.289062 192.121094 153.800781 190.984375 155.894531 187.691406 C 157.566406 187.769531 159.296875 187.3125 160.867188 188.253906 Z M 160.867188 188.253906 " fill-opacity="1" fill-rule="nonzero"/><path fill="#321b1b" d="M 164.113281 173.914062 C 163.25 173.269531 162.453125 172.503906 161.515625 172.007812 C 157.8125 170.046875 155.582031 171.15625 154.65625 175.332031 C 153.703125 175.675781 153.320312 175.316406 153.285156 174.328125 C 153.15625 170.34375 157.089844 167.695312 160.714844 169.375 C 162.492188 170.195312 163.90625 171.445312 164.863281 173.171875 C 164.976562 173.78125 164.730469 174.039062 164.113281 173.914062 Z M 164.113281 173.914062 " fill-opacity="1" fill-rule="nonzero"/><path fill="#341818" d="M 180.910156 196.617188 C 184.097656 195.925781 187.066406 194.800781 189.492188 192.503906 C 189.90625 192.117188 190.4375 191.339844 191.089844 191.992188 C 191.734375 192.632812 191.28125 193.359375 190.8125 193.960938 C 188.84375 196.511719 186.058594 197.605469 183.050781 198.308594 C 182.363281 198.585938 181.640625 198.457031 180.933594 198.472656 C 180.308594 198.480469 179.578125 198.535156 179.558594 197.640625 C 179.539062 196.765625 180.425781 196.917969 180.910156 196.617188 Z M 180.910156 196.617188 " fill-opacity="1" fill-rule="nonzero"/><path fill="#f7a990" d="M 172.523438 189.261719 C 172.460938 187.894531 173.101562 186.828125 174.402344 186.679688 C 175.953125 186.503906 177.761719 185.941406 179.03125 187.363281 C 180.453125 188.953125 179.671875 190.148438 178.019531 190.996094 C 176.429688 189.65625 174.085938 190.699219 172.523438 189.261719 Z M 172.523438 189.261719 " fill-opacity="1" fill-rule="nonzero"/><path fill="#be6559" d="M 180.910156 196.617188 C 180.605469 196.929688 180.074219 197.21875 180.039062 197.558594 C 179.953125 198.394531 180.742188 198.121094 181.191406 198.191406 C 181.804688 198.285156 182.429688 198.273438 183.050781 198.308594 C 180.273438 199.3125 177.664062 198.542969 175.105469 197.496094 C 174.515625 197.253906 173.976562 196.667969 174.332031 195.957031 C 174.671875 195.277344 175.296875 195.695312 175.769531 195.898438 C 177.421875 196.609375 179.195312 196.402344 180.910156 196.617188 Z M 180.910156 196.617188 " fill-opacity="1" fill-rule="nonzero"/><path fill="#311719" d="M 172.523438 189.261719 C 173.792969 189.3125 175.066406 189.363281 176.335938 189.421875 C 177.339844 189.464844 178.15625 189.726562 178.019531 190.996094 C 176.699219 191.933594 175.21875 191.804688 173.785156 191.492188 C 172.6875 191.246094 171.546875 190.789062 172.523438 189.261719 Z M 172.523438 189.261719 " fill-opacity="1" fill-rule="nonzero"/><path fill="#725552" d="M 164.113281 173.914062 C 164.363281 173.664062 164.617188 173.417969 164.867188 173.171875 C 165.980469 174.40625 167.179688 175.609375 166.535156 177.519531 C 165.726562 176.316406 164.917969 175.113281 164.113281 173.914062 Z M 164.113281 173.914062 " fill-opacity="1" fill-rule="nonzero"/><path fill="#531a1a" d="M 103.90625 286.792969 C 100.914062 286.734375 97.886719 287.375 94.9375 286.367188 C 97.933594 286.347656 100.933594 286.261719 103.90625 286.792969 Z M 103.90625 286.792969 " fill-opacity="1" fill-rule="nonzero"/><path fill="#f59b87" d="M 248.238281 164.414062 C 249.300781 164.332031 250.058594 164.578125 250.714844 165.171875 C 252.566406 166.863281 254.222656 168.738281 255.292969 171.011719 C 256.578125 173.738281 255.515625 175.957031 252.5625 176.710938 C 250.789062 177.164062 248.957031 177.460938 247.132812 177.609375 C 245.203125 177.761719 243.796875 176.65625 243.601562 174.816406 C 243.265625 171.65625 243.835938 168.5625 245.617188 165.84375 C 246.230469 164.90625 247.144531 164.207031 248.238281 164.414062 Z M 248.238281 164.414062 " fill-opacity="1" fill-rule="nonzero"/><path fill="#d16960" d="M 248.472656 184.425781 C 248.835938 184.65625 249.199219 184.886719 249.925781 185.347656 C 248.460938 185.417969 247.3125 185.46875 246.164062 185.523438 C 243.1875 184.546875 241.230469 182.417969 239.671875 179.820312 C 235.449219 172.792969 236.761719 162.179688 242.425781 157.40625 C 243.21875 156.738281 244.039062 156.203125 245.0625 156.019531 C 245.683594 156.375 245.28125 156.800781 245.148438 157.210938 C 241.378906 159.074219 239.972656 162.558594 239.292969 166.308594 C 238.429688 171.074219 239.253906 175.660156 241.84375 179.828125 C 243.378906 182.300781 245.695312 183.707031 248.472656 184.425781 Z M 248.472656 184.425781 " fill-opacity="1" fill-rule="nonzero"/><path fill="#451f1e" d="M 174.808594 259.804688 C 174.773438 259.015625 174.917969 258.109375 173.691406 258.09375 C 173.707031 257.925781 173.734375 257.753906 173.765625 257.585938 C 177.398438 255.394531 181.257812 254.800781 185.425781 256.113281 C 183.890625 256.570312 182.359375 257.03125 180.824219 257.488281 C 178.621094 257.742188 176.878906 259.191406 174.808594 259.804688 Z M 174.808594 259.804688 " fill-opacity="1" fill-rule="nonzero"/><path fill="#fcb8a3" d="M 228.664062 246.609375 C 233.265625 244.761719 237.546875 243.152344 242.277344 244.222656 C 245.886719 245.042969 248.328125 247.183594 249.3125 250.851562 C 249.546875 251.734375 249.492188 252.53125 248.863281 253.164062 C 248.199219 253.832031 247.480469 253.3125 246.816406 253.046875 C 243.824219 251.855469 240.871094 250.550781 237.839844 249.46875 C 234.945312 248.4375 231.96875 247.628906 228.664062 246.609375 Z M 228.664062 246.609375 " fill-opacity="1" fill-rule="nonzero"/><path fill="#531a1a" d="M 125.410156 289.074219 C 121.734375 288.710938 118.0625 289.863281 114.378906 289.089844 C 113.773438 288.964844 113.097656 289.128906 112.652344 288.523438 C 116.046875 288.523438 119.433594 288.507812 122.828125 288.539062 C 123.707031 288.546875 124.683594 288.246094 125.410156 289.074219 Z M 125.410156 289.074219 " fill-opacity="1" fill-rule="nonzero"/><path fill="#531a1a" d="M 112.097656 288.523438 C 109.691406 289.664062 107.292969 288.839844 104.886719 288.515625 C 107.292969 287.402344 109.695312 287.980469 112.097656 288.523438 Z M 112.097656 288.523438 " fill-opacity="1" fill-rule="nonzero"/><path fill="#ec8a75" d="M 205.269531 189.640625 C 205.148438 190.414062 205.472656 191.425781 204.382812 191.421875 C 203.335938 191.414062 203.222656 190.382812 203.097656 189.601562 C 202.980469 188.851562 203.144531 187.972656 204.066406 187.949219 C 205.199219 187.914062 205.144531 188.945312 205.269531 189.640625 Z M 205.269531 189.640625 " fill-opacity="1" fill-rule="nonzero"/><path fill="#e7826c" d="M 208.640625 190.261719 C 207.914062 189.191406 207.394531 188.265625 207.859375 187.140625 C 208.03125 186.722656 208.488281 186.808594 208.75 187.148438 C 209.464844 188.0625 209.984375 189.007812 208.640625 190.261719 Z M 208.640625 190.261719 " fill-opacity="1" fill-rule="nonzero"/><path fill="#f9e5df" d="M 250.304688 171.726562 C 250.332031 172.503906 249.742188 172.578125 249.214844 172.648438 C 248.503906 172.746094 247.847656 172.597656 248.023438 171.6875 C 248.117188 171.203125 248.480469 170.402344 248.753906 170.386719 C 249.546875 170.347656 249.902344 171.121094 250.304688 171.726562 Z M 250.304688 171.726562 " fill-opacity="1" fill-rule="nonzero"/></svg>