<svg xmlns="http://www.w3.org/2000/svg" xmlns:xlink="http://www.w3.org/1999/xlink" width="940" zoomAndPan="magnify" viewBox="0 0 705 591.000005" height="788" preserveAspectRatio="xMidYMid meet" version="1.0"><defs><clipPath id="ec0d0a14c7"><path d="M 234.5 177 L 470.351562 177 L 470.351562 412.851562 L 234.5 412.851562 Z M 234.5 177 " clip-rule="nonzero"/></clipPath></defs><g clip-path="url(#ec0d0a14c7)"><path fill="#545454" d="M 450.777344 177 L 254.332031 177 C 243.472656 177 234.734375 185.855469 234.734375 196.597656 L 234.734375 393.394531 C 234.734375 404.253906 243.589844 412.992188 254.332031 412.992188 L 450.65625 412.992188 C 461.519531 412.992188 470.253906 404.136719 470.253906 393.394531 L 470.253906 196.597656 C 470.371094 185.855469 461.636719 177 450.777344 177 Z M 304.507812 371.671875 L 269.679688 371.671875 L 269.679688 267.078125 L 304.507812 267.078125 Z M 287.035156 254.445312 C 276.054688 254.445312 267.199219 245.589844 267.199219 234.609375 C 267.199219 223.632812 276.054688 214.777344 287.035156 214.777344 C 298.011719 214.777344 306.867188 223.632812 306.867188 234.609375 C 306.867188 245.589844 298.011719 254.445312 287.035156 254.445312 Z M 435.546875 371.671875 L 400.601562 371.671875 L 399.777344 309.574219 C 399.777344 309.574219 400.601562 293.046875 382.539062 293.167969 C 364.476562 293.285156 362 309.574219 362 309.574219 L 362 371.671875 L 326.820312 371.671875 L 326.820312 267.078125 L 360.582031 267.078125 L 360.582031 281.480469 C 360.582031 281.480469 362 276.757812 369.789062 271.207031 C 377.582031 265.660156 390.449219 264.480469 396 264.714844 C 401.546875 264.953125 409.101562 264.007812 421.734375 272.742188 C 435.3125 282.070312 435.664062 306.507812 435.664062 306.507812 Z M 435.546875 371.671875 " fill-opacity="1" fill-rule="nonzero"/></g></svg>