<svg xmlns="http://www.w3.org/2000/svg" xmlns:xlink="http://www.w3.org/1999/xlink" width="500" zoomAndPan="magnify" viewBox="0 0 375 374.999991" height="500" preserveAspectRatio="xMidYMid meet" version="1.0"><defs><g/></defs><rect x="-37.5" width="450" fill="#ffffff" y="-37.499999" height="449.999989" fill-opacity="1"/><rect x="-37.5" width="450" fill="#ffffff" y="-37.499999" height="449.999989" fill-opacity="1"/><g fill="#000000" fill-opacity="1"><g transform="translate(150.524665, 207.374986)"><g><path d="M 24.71875 -37.796875 C 22.679688 -38.015625 21.132812 -38.074219 18.761719 -38.074219 L 4.414062 -38.074219 L 4.414062 0 L 14.347656 0 L 14.347656 -13.351562 L 18.761719 -13.351562 C 21.132812 -13.351562 22.679688 -13.40625 24.71875 -13.628906 C 30.238281 -14.289062 35.257812 -18.207031 35.257812 -25.710938 C 35.257812 -33.21875 30.238281 -37.132812 24.71875 -37.796875 Z M 20.855469 -21.132812 C 20.140625 -21.078125 19.257812 -21.078125 18.207031 -21.078125 L 14.347656 -21.078125 L 14.347656 -30.347656 L 18.207031 -30.347656 C 19.257812 -30.347656 20.140625 -30.347656 20.855469 -30.292969 C 23.394531 -30.070312 24.886719 -28.582031 24.886719 -25.710938 C 24.886719 -22.84375 23.394531 -21.355469 20.855469 -21.132812 Z M 20.855469 -21.132812 "/></g></g></g><g fill="#000000" fill-opacity="1"><g transform="translate(186.331197, 207.374986)"><g><path d="M 20.800781 -30.238281 C 18.925781 -30.238281 16.609375 -29.410156 15.007812 -27.644531 L 12.910156 -23.503906 L 12.910156 -29.464844 L 2.980469 -29.464844 L 2.980469 0 L 12.910156 0 L 12.910156 -10.816406 C 12.910156 -19.699219 15.613281 -22.457031 23.0625 -21.960938 L 23.0625 -30.070312 C 22.347656 -30.183594 21.738281 -30.238281 20.800781 -30.238281 Z M 20.800781 -30.238281 "/></g></g></g><g fill="#000000" fill-opacity="1"><g transform="translate(209.779244, 207.374986)"><g><path d="M 7.726562 -10.261719 C 4.46875 -10.261719 2.207031 -8 2.207031 -4.746094 C 2.207031 -1.488281 4.46875 0.773438 7.726562 0.773438 C 10.980469 0.773438 13.242188 -1.488281 13.242188 -4.746094 C 13.242188 -8 10.980469 -10.261719 7.726562 -10.261719 Z M 7.726562 -10.261719 "/></g></g></g></svg>