<svg xmlns="http://www.w3.org/2000/svg" xmlns:xlink="http://www.w3.org/1999/xlink" width="500" zoomAndPan="magnify" viewBox="0 0 375 374.999991" height="500" preserveAspectRatio="xMidYMid meet" version="1.0"><defs><clipPath id="9944ada08e"><path d="M 97 273 L 188 273 L 188 318.207031 L 97 318.207031 Z M 97 273 " clip-rule="nonzero"/></clipPath><clipPath id="4fb576a32f"><path d="M 65.464844 83 L 143 83 L 143 188 L 65.464844 188 Z M 65.464844 83 " clip-rule="nonzero"/></clipPath><clipPath id="1e2b144357"><path d="M 65.464844 160 L 170 160 L 170 237 L 65.464844 237 Z M 65.464844 160 " clip-rule="nonzero"/></clipPath><clipPath id="d0dd05cea2"><path d="M 161 56.457031 L 256 56.457031 L 256 151 L 161 151 Z M 161 56.457031 " clip-rule="nonzero"/></clipPath><clipPath id="78b245da5a"><path d="M 65.464844 105 L 118 105 L 118 188 L 65.464844 188 Z M 65.464844 105 " clip-rule="nonzero"/></clipPath><clipPath id="85a73fd825"><path d="M 65.464844 160 L 167 160 L 167 237 L 65.464844 237 Z M 65.464844 160 " clip-rule="nonzero"/></clipPath><clipPath id="287b96f9a4"><path d="M 161 56.457031 L 256 56.457031 L 256 151 L 161 151 Z M 161 56.457031 " clip-rule="nonzero"/></clipPath><clipPath id="0bd86e1c99"><path d="M 187 218 L 287 218 L 287 318.207031 L 187 318.207031 Z M 187 218 " clip-rule="nonzero"/></clipPath><clipPath id="eb0384298a"><path d="M 187 224 L 282 224 L 282 318.207031 L 187 318.207031 Z M 187 224 " clip-rule="nonzero"/></clipPath></defs><path fill="#ecf5f4" d="M 192.078125 255.023438 L 92.796875 255.023438 C 87.808594 255.023438 83.773438 250.988281 83.773438 246 C 83.773438 241.011719 87.808594 236.972656 92.796875 236.972656 L 192.078125 236.972656 C 197.066406 236.972656 201.105469 241.011719 201.105469 246 C 201.105469 250.988281 197.066406 255.023438 192.078125 255.023438 " fill-opacity="1" fill-rule="nonzero"/><path fill="#ecf5f4" d="M 192.078125 273.078125 L 92.796875 273.078125 C 87.808594 273.078125 83.773438 269.039062 83.773438 264.050781 C 83.773438 259.0625 87.808594 255.023438 92.796875 255.023438 L 192.078125 255.023438 C 197.066406 255.023438 201.105469 259.0625 201.105469 264.050781 C 201.105469 269.039062 197.066406 273.078125 192.078125 273.078125 " fill-opacity="1" fill-rule="nonzero"/><g clip-path="url(#9944ada08e)"><path fill="#d2dbda" d="M 142.4375 318.207031 C 117.511719 318.207031 97.3125 298.003906 97.3125 273.078125 L 187.566406 273.078125 C 187.566406 298.003906 167.363281 318.207031 142.4375 318.207031 " fill-opacity="1" fill-rule="nonzero"/></g><path fill="#66cde1" d="M 187.566406 156.746094 C 190.316406 154.257812 192.078125 150.714844 192.078125 146.714844 C 192.078125 139.238281 186.015625 133.175781 178.539062 133.175781 C 171.066406 133.175781 165.003906 139.238281 165.003906 146.714844 C 165.003906 150.714844 166.765625 154.257812 169.515625 156.746094 L 169.515625 160.253906 L 142.4375 160.253906 L 142.4375 187.332031 L 145.945312 187.332031 C 148.433594 184.582031 151.976562 182.816406 155.976562 182.816406 C 163.449219 182.816406 169.515625 188.882812 169.515625 196.355469 C 169.515625 203.832031 163.449219 209.894531 155.976562 209.894531 C 151.976562 209.894531 148.433594 208.132812 145.945312 205.382812 L 142.4375 205.382812 L 142.4375 236.972656 L 187.566406 236.972656 L 187.566406 222.199219 C 206.675781 208.257812 219.15625 185.746094 219.15625 160.253906 L 187.566406 160.253906 L 187.566406 156.746094 " fill-opacity="1" fill-rule="nonzero"/><g clip-path="url(#4fb576a32f)"><path fill="#face08" d="M 97.3125 163.761719 C 94.5625 166.246094 92.796875 169.789062 92.796875 173.792969 C 92.796875 181.265625 98.863281 187.332031 106.335938 187.332031 C 113.8125 187.332031 119.875 181.265625 119.875 173.792969 C 119.875 169.789062 118.113281 166.246094 115.363281 163.761719 L 115.363281 160.253906 L 142.4375 160.253906 L 142.4375 133.175781 L 138.929688 133.175781 C 136.445312 135.925781 132.902344 137.6875 128.902344 137.6875 C 121.425781 137.6875 115.363281 131.625 115.363281 124.148438 C 115.363281 116.675781 121.425781 110.609375 128.902344 110.609375 C 132.902344 110.609375 136.445312 112.375 138.929688 115.125 L 142.4375 115.125 L 142.4375 83.535156 C 100.0625 83.535156 65.722656 117.875 65.722656 160.253906 L 97.3125 160.253906 L 97.3125 163.761719 " fill-opacity="1" fill-rule="nonzero"/></g><g clip-path="url(#1e2b144357)"><path fill="#f2556c" d="M 145.945312 205.382812 C 148.433594 208.132812 151.976562 209.894531 155.976562 209.894531 C 163.449219 209.894531 169.515625 203.832031 169.515625 196.355469 C 169.515625 188.882812 163.449219 182.816406 155.976562 182.816406 C 151.976562 182.816406 148.433594 184.582031 145.945312 187.332031 L 142.4375 187.332031 L 142.4375 160.253906 L 115.363281 160.253906 L 115.363281 163.761719 C 118.113281 166.246094 119.875 169.789062 119.875 173.792969 C 119.875 181.265625 113.8125 187.332031 106.335938 187.332031 C 98.863281 187.332031 92.796875 181.265625 92.796875 173.792969 C 92.796875 169.789062 94.5625 166.246094 97.3125 163.761719 L 97.3125 160.253906 L 65.722656 160.253906 C 65.722656 185.746094 78.183594 208.257812 97.3125 222.199219 L 97.3125 236.972656 L 142.4375 236.972656 L 142.4375 205.382812 L 145.945312 205.382812 " fill-opacity="1" fill-rule="nonzero"/></g><g clip-path="url(#d0dd05cea2)"><path fill="#f2556c" d="M 198.371094 56.457031 L 190.210938 86.972656 L 186.808594 86.054688 C 185.132812 82.757812 182.152344 80.132812 178.292969 79.109375 C 171.066406 77.167969 163.644531 81.453125 161.707031 88.679688 C 159.785156 95.910156 164.066406 103.332031 171.296875 105.269531 C 175.136719 106.292969 179.035156 105.515625 182.136719 103.488281 L 185.519531 104.40625 L 178.523438 130.566406 L 204.664062 137.566406 L 205.582031 134.179688 C 203.570312 131.058594 202.777344 127.183594 203.820312 123.320312 C 205.757812 116.109375 213.179688 111.808594 220.40625 113.75 C 227.632812 115.6875 231.917969 123.109375 229.976562 130.335938 C 228.9375 134.179688 226.328125 137.160156 223.015625 138.851562 L 222.117188 142.238281 L 252.628906 150.417969 C 263.59375 109.5 239.304688 67.421875 198.371094 56.457031 " fill-opacity="1" fill-rule="nonzero"/></g><path fill="#d2dbda" d="M 201.105469 246 C 201.105469 248.484375 200.117188 250.742188 198.441406 252.363281 C 196.820312 254.039062 194.5625 255.023438 192.078125 255.023438 L 92.796875 255.023438 C 87.828125 255.023438 83.773438 250.953125 83.773438 246 C 83.773438 243.511719 84.761719 241.257812 86.433594 239.636719 C 88.058594 237.960938 90.3125 236.972656 92.796875 236.972656 C 92.796875 241.925781 96.871094 246 101.824219 246 L 201.105469 246 " fill-opacity="1" fill-rule="nonzero"/><path fill="#d2dbda" d="M 201.105469 264.050781 C 201.105469 266.535156 200.117188 268.792969 198.441406 270.414062 C 196.820312 272.089844 194.5625 273.078125 192.078125 273.078125 L 92.796875 273.078125 C 87.828125 273.078125 83.773438 269.003906 83.773438 264.050781 C 83.773438 261.566406 84.761719 259.308594 86.433594 257.6875 C 88.058594 256.011719 90.3125 255.023438 92.796875 255.023438 C 92.796875 259.980469 96.871094 264.050781 101.824219 264.050781 L 201.105469 264.050781 " fill-opacity="1" fill-rule="nonzero"/><path fill="#8f9697" d="M 187.566406 273.078125 C 187.566406 276.195312 187.25 279.210938 186.667969 282.101562 L 155.976562 282.101562 C 144.78125 282.101562 134.59375 286.667969 127.277344 294.019531 C 122.714844 298.566406 119.1875 304.207031 117.25 310.539062 C 105.207031 302.410156 97.3125 288.644531 97.3125 273.078125 L 187.566406 273.078125 " fill-opacity="1" fill-rule="nonzero"/><path fill="#49b9da" d="M 207.644531 200.550781 C 202.410156 208.996094 195.605469 216.347656 187.566406 222.21875 L 187.566406 236.972656 L 142.4375 236.972656 L 142.4375 205.382812 L 145.964844 205.382812 C 148.449219 208.132812 151.957031 209.894531 155.976562 209.894531 C 160.347656 209.894531 164.28125 207.816406 166.710938 204.570312 C 170.589844 205.117188 174.519531 205.382812 178.539062 205.382812 C 188.746094 205.382812 198.53125 203.707031 207.644531 200.550781 " fill-opacity="1" fill-rule="nonzero"/><g clip-path="url(#78b245da5a)"><path fill="#f9af0b" d="M 117.441406 181.546875 C 114.992188 185.023438 110.9375 187.332031 106.335938 187.332031 C 98.84375 187.332031 92.796875 181.285156 92.796875 173.792969 C 92.796875 169.773438 94.5625 166.265625 97.3125 163.777344 L 97.3125 160.253906 L 65.722656 160.253906 C 65.722656 138.765625 74.570312 119.371094 88.78125 105.410156 C 88.460938 108.582031 88.285156 111.828125 88.285156 115.125 C 88.285156 141.445312 99.515625 165.082031 117.441406 181.546875 " fill-opacity="1" fill-rule="nonzero"/></g><g clip-path="url(#85a73fd825)"><path fill="#ef3a49" d="M 166.710938 204.570312 C 164.28125 207.816406 160.347656 209.894531 155.976562 209.894531 C 151.957031 209.894531 148.449219 208.132812 145.964844 205.382812 L 142.4375 205.382812 L 142.4375 236.972656 L 97.3125 236.972656 L 97.3125 222.21875 C 78.183594 208.222656 65.722656 185.761719 65.722656 160.253906 L 97.3125 160.253906 L 97.3125 163.777344 C 94.5625 166.265625 92.796875 169.773438 92.796875 173.792969 C 92.796875 181.285156 98.84375 187.332031 106.335938 187.332031 C 110.9375 187.332031 114.992188 185.023438 117.441406 181.546875 C 130.785156 193.835938 147.851562 202.140625 166.710938 204.570312 " fill-opacity="1" fill-rule="nonzero"/></g><g clip-path="url(#287b96f9a4)"><path fill="#ef3a49" d="M 255.203125 127.851562 C 255.484375 135.292969 254.675781 142.890625 252.628906 150.417969 L 222.132812 142.253906 L 223.03125 138.871094 C 226.328125 137.140625 228.9375 134.164062 229.996094 130.335938 C 231.933594 123.109375 227.632812 115.671875 220.425781 113.765625 C 213.195312 111.828125 205.757812 116.109375 203.800781 123.339844 C 202.777344 127.164062 203.589844 131.058594 205.5625 134.164062 L 204.664062 137.546875 L 178.539062 130.550781 L 185.539062 104.421875 L 182.152344 103.472656 C 179.035156 105.515625 175.15625 106.273438 171.277344 105.234375 C 164.050781 103.347656 159.765625 95.890625 161.707031 88.679688 C 163.644531 81.453125 171.046875 77.167969 178.3125 79.109375 C 182.152344 80.148438 185.132812 82.777344 186.808594 86.054688 L 190.191406 86.972656 L 198.40625 56.457031 C 199.429688 56.71875 200.46875 57.039062 201.472656 57.40625 C 204.4375 89.808594 225.871094 116.835938 255.203125 127.851562 " fill-opacity="1" fill-rule="nonzero"/></g><g clip-path="url(#0bd86e1c99)"><path fill="#f8ec08" d="M 237.207031 291.128906 C 224.742188 291.128906 214.640625 281.027344 214.640625 268.5625 C 214.640625 256.101562 224.742188 246 237.207031 246 C 249.667969 246 259.769531 256.101562 259.769531 268.5625 C 259.769531 281.027344 249.667969 291.128906 237.207031 291.128906 Z M 286.847656 280.972656 L 286.847656 256.152344 L 276.675781 256.152344 C 275.933594 253.808594 274.980469 251.585938 273.871094 249.453125 L 281.082031 242.226562 L 263.542969 224.6875 L 256.316406 231.894531 C 254.179688 230.785156 251.960938 229.832031 249.617188 229.09375 L 249.617188 218.921875 L 224.796875 218.921875 L 224.796875 229.09375 C 222.453125 229.832031 220.230469 230.785156 218.097656 231.894531 L 210.871094 224.6875 L 193.332031 242.226562 L 200.539062 249.453125 C 199.429688 251.585938 198.476562 253.808594 197.738281 256.152344 L 187.566406 256.152344 L 187.566406 280.972656 L 197.738281 280.972656 C 198.476562 283.320312 199.429688 285.539062 200.539062 287.671875 L 193.332031 294.882812 L 210.871094 312.441406 L 218.097656 305.230469 C 220.230469 306.34375 222.453125 307.292969 224.796875 308.035156 L 224.796875 318.207031 L 249.617188 318.207031 L 249.617188 308.035156 C 251.960938 307.292969 254.179688 306.34375 256.316406 305.230469 L 263.542969 312.441406 L 281.082031 294.882812 L 273.871094 287.671875 C 274.980469 285.539062 275.933594 283.320312 276.675781 280.972656 L 286.847656 280.972656 " fill-opacity="1" fill-rule="nonzero"/></g><g clip-path="url(#eb0384298a)"><path fill="#face08" d="M 278.261719 292.082031 C 272.550781 294.371094 266.308594 295.640625 259.769531 295.640625 C 257.832031 295.640625 255.890625 295.5 253.988281 295.269531 C 248.628906 294.6875 243.535156 293.207031 238.828125 291.039062 C 238.28125 291.128906 237.753906 291.128906 237.207031 291.128906 C 224.742188 291.128906 214.640625 281.027344 214.640625 268.5625 C 214.640625 268.015625 214.640625 267.488281 214.730469 266.941406 C 212.5625 262.234375 211.082031 257.140625 210.5 251.78125 C 210.269531 249.878906 210.128906 247.9375 210.128906 246 C 210.128906 239.457031 211.398438 233.21875 213.691406 227.507812 L 210.886719 224.703125 L 193.347656 242.246094 L 200.558594 249.4375 C 199.429688 251.585938 198.476562 253.808594 197.71875 256.152344 L 187.566406 256.152344 L 187.566406 280.972656 L 197.71875 280.972656 C 198.476562 283.320312 199.429688 285.539062 200.558594 287.691406 L 193.347656 294.882812 L 210.886719 312.421875 L 218.078125 305.214844 C 220.230469 306.34375 222.453125 307.292969 224.796875 308.050781 L 224.796875 318.207031 L 249.617188 318.207031 L 249.617188 308.050781 C 251.960938 307.292969 254.179688 306.34375 256.332031 305.214844 L 263.523438 312.421875 L 281.0625 294.882812 L 278.261719 292.082031 " fill-opacity="1" fill-rule="nonzero"/></g><path fill="#f9af0b" d="M 237.207031 291.128906 C 224.742188 291.128906 214.640625 281.027344 214.640625 268.5625 C 214.640625 256.101562 224.742188 246 237.207031 246 C 249.667969 246 259.769531 256.101562 259.769531 268.5625 C 259.769531 281.027344 249.667969 291.128906 237.207031 291.128906 Z M 237.207031 236.972656 C 219.738281 236.972656 205.617188 251.09375 205.617188 268.5625 C 205.617188 286.035156 219.738281 300.152344 237.207031 300.152344 C 254.675781 300.152344 268.796875 286.035156 268.796875 268.5625 C 268.796875 251.09375 254.675781 236.972656 237.207031 236.972656 " fill-opacity="1" fill-rule="nonzero"/><path fill="#f7980f" d="M 253.988281 295.269531 C 249.121094 298.390625 243.394531 300.152344 237.207031 300.152344 C 219.738281 300.152344 205.617188 286.035156 205.617188 268.5625 C 205.617188 262.375 207.378906 256.648438 210.5 251.78125 C 211.082031 257.140625 212.5625 262.234375 214.730469 266.941406 C 214.640625 267.488281 214.640625 268.015625 214.640625 268.5625 C 214.640625 281.027344 224.742188 291.128906 237.207031 291.128906 C 237.753906 291.128906 238.28125 291.128906 238.828125 291.039062 C 243.535156 293.207031 248.628906 294.6875 253.988281 295.269531 " fill-opacity="1" fill-rule="nonzero"/><path fill="#f8ec08" d="M 272.972656 200.871094 C 268 200.871094 263.949219 196.832031 263.949219 191.84375 C 263.949219 186.855469 268 182.816406 272.972656 182.816406 C 277.960938 182.816406 282 186.855469 282 191.84375 C 282 196.832031 277.960938 200.871094 272.972656 200.871094 Z M 300.050781 191.84375 C 300.050781 190.152344 299.890625 188.511719 299.589844 186.90625 L 308.757812 181.601562 L 299.730469 165.984375 L 290.566406 171.269531 C 288.0625 169.136719 285.171875 167.464844 282 166.335938 L 282 155.742188 L 263.949219 155.742188 L 263.949219 166.335938 C 260.792969 167.464844 257.902344 169.136719 255.398438 171.269531 L 246.230469 165.984375 L 237.207031 181.601562 L 246.371094 186.90625 C 246.089844 188.511719 245.894531 190.152344 245.894531 191.84375 C 245.894531 193.535156 246.089844 195.175781 246.371094 196.78125 L 237.207031 202.085938 L 246.230469 217.707031 L 255.398438 212.417969 C 257.902344 214.550781 260.792969 216.222656 263.949219 217.351562 L 263.949219 227.949219 L 282 227.949219 L 282 217.351562 C 285.171875 216.222656 288.0625 214.550781 290.566406 212.417969 L 299.730469 217.707031 L 308.757812 202.085938 L 299.589844 196.78125 C 299.890625 195.175781 300.050781 193.535156 300.050781 191.84375 " fill-opacity="1" fill-rule="nonzero"/><path fill="#face08" d="M 306.078125 200.5 C 300.332031 203.621094 293.792969 205.382812 286.847656 205.382812 C 264.828125 205.382812 246.917969 187.878906 246.285156 165.984375 L 246.230469 165.984375 L 237.207031 181.601562 L 246.371094 186.925781 C 246.089844 188.511719 245.914062 190.167969 245.914062 191.84375 C 245.914062 193.519531 246.089844 195.175781 246.371094 196.761719 L 237.207031 202.085938 L 246.230469 217.707031 L 255.398438 212.417969 C 257.917969 214.550781 260.808594 216.222656 263.964844 217.351562 L 263.964844 227.949219 L 282.015625 227.949219 L 282.015625 217.351562 C 285.171875 216.222656 288.0625 214.550781 290.546875 212.417969 L 299.75 217.707031 L 308.773438 202.085938 L 306.078125 200.5 " fill-opacity="1" fill-rule="nonzero"/><path fill="#f9af0b" d="M 272.992188 200.871094 C 267.984375 200.871094 263.964844 196.796875 263.964844 191.84375 C 263.964844 186.890625 267.984375 182.816406 272.992188 182.816406 C 277.960938 182.816406 282.015625 186.890625 282.015625 191.84375 C 282.015625 196.796875 277.960938 200.871094 272.992188 200.871094 Z M 273.308594 173.792969 C 263.332031 173.792969 255.257812 181.867188 255.257812 191.84375 C 255.257812 201.820312 263.332031 209.894531 273.308594 209.894531 C 283.285156 209.894531 291.359375 201.820312 291.359375 191.84375 C 291.359375 181.867188 283.285156 173.792969 273.308594 173.792969 " fill-opacity="1" fill-rule="nonzero"/><path fill="#f7980f" d="M 255.398438 190.414062 C 255.363281 190.890625 255.257812 191.351562 255.257812 191.84375 C 255.257812 201.820312 263.332031 209.894531 273.308594 209.894531 C 277.910156 209.894531 282.035156 208.132812 285.222656 205.292969 C 273.203125 204.835938 262.519531 199.140625 255.398438 190.414062 " fill-opacity="1" fill-rule="nonzero"/></svg>