<svg xmlns="http://www.w3.org/2000/svg" xmlns:xlink="http://www.w3.org/1999/xlink" width="500" zoomAndPan="magnify" viewBox="0 0 375 374.999991" height="500" preserveAspectRatio="xMidYMid meet" version="1.0"><defs><clipPath id="a4986e763c"><path d="M 46.984375 70.871094 L 328.234375 70.871094 L 328.234375 254 L 46.984375 254 Z M 46.984375 70.871094 " clip-rule="nonzero"/></clipPath><clipPath id="24548f22bb"><path d="M 46.984375 208 L 328.234375 208 L 328.234375 254 L 46.984375 254 Z M 46.984375 208 " clip-rule="nonzero"/></clipPath><clipPath id="5f25be3f94"><path d="M 144 279 L 231 279 L 231 304.121094 L 144 304.121094 Z M 144 279 " clip-rule="nonzero"/></clipPath><clipPath id="83d7163b17"><path d="M 46.984375 204 L 328.234375 204 L 328.234375 213 L 46.984375 213 Z M 46.984375 204 " clip-rule="nonzero"/></clipPath></defs><g clip-path="url(#a4986e763c)"><path fill="#3b566a" d="M 77.296875 70.804688 L 297.917969 70.804688 C 306.253906 70.804688 313.832031 74.207031 319.320312 79.695312 C 324.8125 85.183594 328.222656 92.753906 328.222656 101.082031 L 328.222656 223.144531 C 328.222656 231.476562 324.8125 239.046875 319.320312 244.535156 C 313.832031 250.019531 306.253906 253.425781 297.917969 253.425781 L 77.296875 253.425781 C 68.960938 253.425781 61.382812 250.019531 55.890625 244.535156 C 50.402344 239.046875 46.992188 231.476562 46.992188 223.144531 L 46.992188 101.082031 C 46.992188 92.753906 50.402344 85.179688 55.890625 79.695312 C 61.382812 74.207031 68.960938 70.804688 77.296875 70.804688 Z M 77.296875 70.804688 " fill-opacity="1" fill-rule="evenodd"/></g><path fill="#ffffff" d="M 297.917969 78.101562 L 77.296875 78.101562 C 70.976562 78.101562 65.226562 80.6875 61.058594 84.855469 C 56.886719 89.023438 54.296875 94.769531 54.296875 101.082031 L 54.296875 223.144531 C 54.296875 229.460938 56.886719 235.207031 61.058594 239.375 C 65.226562 243.539062 70.976562 246.128906 77.296875 246.128906 L 297.917969 246.128906 C 304.238281 246.128906 309.988281 243.539062 314.15625 239.375 C 318.328125 235.207031 320.917969 229.460938 320.917969 223.144531 L 320.917969 101.082031 C 320.917969 94.769531 318.328125 89.023438 314.15625 84.855469 C 309.988281 80.6875 304.238281 78.101562 297.917969 78.101562 Z M 297.917969 78.101562 " fill-opacity="1" fill-rule="nonzero"/><path fill="#3b566a" d="M 231.371094 246.484375 C 233.191406 247.335938 233.976562 249.5 233.125 251.316406 L 217.414062 284.683594 C 216.5625 286.5 214.398438 287.285156 212.578125 286.433594 L 162.636719 286.433594 C 160.816406 287.285156 158.652344 286.5 157.800781 284.683594 L 142.089844 251.316406 C 141.238281 249.5 142.023438 247.335938 143.84375 246.484375 Z M 231.371094 246.484375 " fill-opacity="1" fill-rule="evenodd"/><g clip-path="url(#24548f22bb)"><path fill="#c4ced3" d="M 328.222656 208.484375 L 328.222656 223.144531 C 328.222656 231.476562 324.8125 239.046875 319.324219 244.535156 C 313.832031 250.019531 306.253906 253.425781 297.917969 253.425781 L 77.300781 253.425781 C 68.960938 253.425781 61.382812 250.019531 55.894531 244.535156 C 50.402344 239.046875 46.996094 231.476562 46.996094 223.144531 L 46.996094 208.484375 Z M 328.222656 208.484375 " fill-opacity="1" fill-rule="evenodd"/></g><path fill="#3b566a" d="M 175.8125 234.605469 C 173.796875 234.605469 172.160156 232.96875 172.160156 230.957031 C 172.160156 228.941406 173.796875 227.304688 175.8125 227.304688 L 199.402344 227.304688 C 201.417969 227.304688 203.054688 228.941406 203.054688 230.957031 C 203.054688 232.96875 201.417969 234.605469 199.402344 234.605469 Z M 175.8125 234.605469 " fill-opacity="1" fill-rule="evenodd"/><g clip-path="url(#5f25be3f94)"><path fill="#c4ced3" d="M 157.074219 279.492188 L 218.140625 279.492188 C 221.515625 279.492188 224.582031 280.871094 226.804688 283.089844 C 229.023438 285.308594 230.402344 288.375 230.402344 291.746094 L 230.402344 298.28125 C 230.402344 299.847656 229.757812 301.273438 228.71875 302.316406 L 228.722656 302.324219 C 227.6875 303.359375 226.257812 304.003906 224.679688 304.003906 L 150.535156 304.003906 C 148.957031 304.003906 147.527344 303.359375 146.488281 302.324219 C 146.378906 302.214844 146.277344 302.097656 146.183594 301.980469 C 145.328125 300.976562 144.8125 299.683594 144.8125 298.28125 L 144.8125 291.746094 C 144.8125 288.375 146.191406 285.308594 148.410156 283.089844 C 150.632812 280.871094 153.699219 279.492188 157.074219 279.492188 Z M 157.074219 279.492188 " fill-opacity="1" fill-rule="evenodd"/></g><g clip-path="url(#83d7163b17)"><path fill="#3b566a" d="M 50.644531 212.136719 C 48.628906 212.136719 46.992188 210.5 46.992188 208.484375 C 46.992188 206.46875 48.628906 204.835938 50.644531 204.835938 L 324.570312 204.835938 C 326.585938 204.835938 328.222656 206.46875 328.222656 208.484375 C 328.222656 210.5 326.585938 212.136719 324.570312 212.136719 Z M 50.644531 212.136719 " fill-opacity="1" fill-rule="evenodd"/></g><path fill="#27a2db" d="M 212.058594 99.269531 C 212.59375 97.273438 214.648438 96.089844 216.644531 96.621094 C 218.644531 97.15625 219.828125 99.207031 219.296875 101.203125 L 197.839844 181.21875 C 197.304688 183.214844 195.253906 184.398438 193.253906 183.867188 C 191.257812 183.332031 190.070312 181.28125 190.601562 179.285156 Z M 212.058594 99.269531 " fill-opacity="1" fill-rule="nonzero"/><path fill="#ffae06" d="M 124.550781 109.050781 C 124.550781 106.984375 126.230469 105.304688 128.300781 105.304688 C 130.371094 105.304688 132.050781 106.984375 132.050781 109.050781 L 132.050781 143.054688 C 132.050781 151.894531 128.4375 159.929688 122.609375 165.75 C 116.785156 171.570312 108.746094 175.183594 99.902344 175.183594 C 91.054688 175.183594 83.015625 171.570312 77.191406 165.75 C 71.363281 159.929688 67.75 151.894531 67.75 143.054688 L 67.75 109.050781 C 67.75 106.984375 69.429688 105.304688 71.5 105.304688 C 73.570312 105.304688 75.25 106.984375 75.25 109.050781 L 75.25 143.054688 C 75.25 149.828125 78.023438 155.984375 82.492188 160.449219 C 86.960938 164.917969 93.125 167.6875 99.902344 167.6875 C 106.675781 167.6875 112.839844 164.917969 117.308594 160.449219 C 121.777344 155.984375 124.550781 149.828125 124.550781 143.054688 Z M 124.550781 109.050781 " fill-opacity="1" fill-rule="evenodd"/><path fill="#ffae06" d="M 177.367188 107.003906 C 178.5 105.273438 180.820312 104.789062 182.550781 105.921875 C 184.28125 107.050781 184.765625 109.371094 183.632812 111.101562 L 142.695312 173.484375 C 141.5625 175.214844 139.242188 175.699219 137.511719 174.566406 C 135.777344 173.4375 135.292969 171.117188 136.425781 169.386719 Z M 177.367188 107.003906 " fill-opacity="1" fill-rule="evenodd"/><path fill="#ffae06" d="M 136.425781 111.101562 C 135.292969 109.371094 135.777344 107.050781 137.511719 105.921875 C 139.242188 104.789062 141.5625 105.273438 142.695312 107.003906 L 183.632812 169.386719 C 184.765625 171.117188 184.28125 173.4375 182.550781 174.566406 C 180.820312 175.699219 178.5 175.214844 177.367188 173.484375 Z M 136.425781 111.101562 " fill-opacity="1" fill-rule="evenodd"/><path fill="#ffae06" d="M 299.964844 109.050781 C 299.964844 106.984375 301.644531 105.304688 303.714844 105.304688 C 305.789062 105.304688 307.464844 106.984375 307.464844 109.050781 L 307.464844 171.4375 C 307.464844 173.503906 305.789062 175.183594 303.714844 175.183594 C 301.644531 175.183594 299.964844 173.503906 299.964844 171.4375 Z M 299.964844 109.050781 " fill-opacity="1" fill-rule="evenodd"/><path fill="#ffae06" d="M 283.078125 109.050781 C 283.078125 106.984375 284.757812 105.304688 286.828125 105.304688 C 288.898438 105.304688 290.578125 106.984375 290.578125 109.050781 L 290.578125 143.054688 C 290.578125 151.894531 286.960938 159.929688 281.136719 165.75 C 275.3125 171.570312 267.273438 175.183594 258.425781 175.183594 C 249.582031 175.183594 241.542969 171.570312 235.714844 165.75 C 229.890625 159.929688 226.273438 151.894531 226.273438 143.054688 L 226.273438 109.050781 C 226.273438 106.984375 227.953125 105.304688 230.023438 105.304688 C 232.09375 105.304688 233.773438 106.984375 233.773438 109.050781 L 233.773438 143.054688 C 233.773438 149.828125 236.546875 155.984375 241.019531 160.449219 C 245.488281 164.917969 251.652344 167.6875 258.425781 167.6875 C 265.203125 167.6875 271.363281 164.917969 275.832031 160.449219 C 280.304688 155.984375 283.078125 149.828125 283.078125 143.054688 Z M 283.078125 109.050781 " fill-opacity="1" fill-rule="evenodd"/></svg>