<svg xmlns="http://www.w3.org/2000/svg" xmlns:xlink="http://www.w3.org/1999/xlink" width="940" zoomAndPan="magnify" viewBox="0 0 705 591.000005" height="788" preserveAspectRatio="xMidYMid meet" version="1.0"><defs><clipPath id="c41426d36b"><path d="M 211.738281 190.308594 L 493.261719 190.308594 L 493.261719 399.953125 L 211.738281 399.953125 Z M 211.738281 190.308594 " clip-rule="nonzero"/></clipPath></defs><g clip-path="url(#c41426d36b)"><path fill="#545454" d="M 485.414062 226.414062 C 482.8125 212.046875 470.410156 201.585938 456.019531 198.320312 C 434.484375 193.753906 394.628906 190.488281 351.511719 190.488281 C 308.414062 190.488281 267.921875 193.753906 246.363281 198.320312 C 231.996094 201.585938 219.570312 211.382812 216.96875 226.414062 C 214.339844 242.742188 211.738281 265.605469 211.738281 294.996094 C 211.738281 324.390625 214.339844 347.253906 217.605469 363.582031 C 220.234375 377.945312 232.636719 388.40625 247 391.675781 C 269.863281 396.242188 309.054688 399.507812 352.171875 399.507812 C 395.292969 399.507812 434.484375 396.242188 457.347656 391.675781 C 471.710938 388.40625 484.113281 378.609375 486.738281 363.582031 C 489.34375 347.253906 492.609375 323.726562 493.273438 294.996094 C 491.945312 265.605469 488.679688 242.742188 485.414062 226.414062 Z M 316.25 340.71875 L 316.25 249.273438 L 395.933594 294.996094 Z M 316.25 340.71875 " fill-opacity="1" fill-rule="nonzero"/></g></svg>